{
	"asset":{
		"generator":"Khronos glTF Blender I/O v4.1.62",
		"version":"2.0"
	},
	"scene":0,
	"scenes":[
		{
			"name":"Scene",
			"nodes":[
				0,
				1,
				2,
				3,
				4,
				5,
				6,
				7,
				8,
				9,
				10
			]
		}
	],
	"nodes":[
		{
			"mesh":0,
			"name":"Cube.006",
			"rotation":[
				-0.27059823274612427,
				0.6532815098762512,
				-0.2705981731414795,
				0.6532813310623169
			],
			"scale":[
				0.008064555004239082,
				0.008064557798206806,
				0.24782605469226837
			],
			"translation":[
				-7.030892372131348,
				3.015631675720215,
				-1.0216158628463745
			]
		},
		{
			"mesh":1,
			"name":"COL.004",
			"scale":[
				0.37173905968666077,
				0.800000011920929,
				0.10000000149011612
			],
			"translation":[
				-7.020281791687012,
				3.822531223297119,
				-1
			]
		},
		{
			"mesh":2,
			"name":"Cube.001",
			"rotation":[
				-0.27059823274612427,
				0.6532815098762512,
				-0.2705981731414795,
				0.6532813310623169
			],
			"scale":[
				0.008064555004239082,
				0.008064557798206806,
				0.24782605469226837
			],
			"translation":[
				-10.292966842651367,
				3.015631675720215,
				-1.0216158628463745
			]
		},
		{
			"mesh":3,
			"name":"COL.001",
			"scale":[
				0.37173905968666077,
				0.800000011920929,
				0.10000000149011612
			],
			"translation":[
				-10.282356262207031,
				3.822531223297119,
				-1
			]
		},
		{
			"mesh":4,
			"name":"\u7acb\u65b9\u4f53",
			"translation":[
				-2,
				3,
				0.6521708965301514
			]
		},
		{
			"mesh":5,
			"name":"\u7acb\u65b9\u4f53.001",
			"scale":[
				3,
				1,
				5
			],
			"translation":[
				-8,
				1,
				0
			]
		},
		{
			"mesh":6,
			"name":"\u7acb\u65b9\u4f53.003",
			"scale":[
				8,
				1,
				5
			],
			"translation":[
				-3,
				1,
				-10
			]
		},
		{
			"mesh":7,
			"name":"\u901a\u8def",
			"rotation":[
				1,
				0,
				0,
				0
			],
			"scale":[
				-0.12297296524047852,
				-1,
				-1
			],
			"translation":[
				-2.78959059715271,
				3.139376640319824,
				0
			]
		},
		{
			"mesh":8,
			"name":"\u7acb\u65b9\u4f53.002",
			"translation":[
				-10,
				4,
				-13.983859062194824
			]
		},
		{
			"mesh":9,
			"name":"Cube.002",
			"rotation":[
				0,
				0,
				-0.2923717498779297,
				0.9563048481941223
			],
			"scale":[
				0.008064554072916508,
				0.012000001035630703,
				0.24782602488994598
			],
			"translation":[
				-8.98814582824707,
				2.9203550815582275,
				-14.208019256591797
			]
		},
		{
			"mesh":10,
			"name":"COL.002",
			"rotation":[
				0,
				0.7071068286895752,
				0,
				0.7071068286895752
			],
			"scale":[
				0.37173905968666077,
				1,
				0.10000000149011612
			],
			"translation":[
				-9.031880378723145,
				3.966426134109497,
				-14.186403274536133
			]
		}
	],
	"materials":[
		{
			"doubleSided":true,
			"name":"\u30de\u30c6\u30ea\u30a2\u30eb.001",
			"pbrMetallicRoughness":{
				"baseColorTexture":{
					"index":0
				},
				"metallicFactor":0,
				"roughnessFactor":0.5
			}
		},
		{
			"doubleSided":true,
			"name":"\u30de\u30c6\u30ea\u30a2\u30eb.010",
			"pbrMetallicRoughness":{
				"baseColorTexture":{
					"index":1
				},
				"metallicFactor":0,
				"roughnessFactor":0.5
			}
		},
		{
			"doubleSided":true,
			"name":"\u30de\u30c6\u30ea\u30a2\u30eb.008",
			"pbrMetallicRoughness":{
				"baseColorTexture":{
					"index":2
				},
				"metallicFactor":0,
				"roughnessFactor":0.5
			}
		}
	],
	"meshes":[
		{
			"name":"Cube.004",
			"primitives":[
				{
					"attributes":{
						"POSITION":0,
						"NORMAL":1,
						"TEXCOORD_0":2
					},
					"indices":3
				}
			]
		},
		{
			"name":"\u7acb\u65b9\u4f53.009",
			"primitives":[
				{
					"attributes":{
						"POSITION":4,
						"NORMAL":5,
						"TEXCOORD_0":6
					},
					"indices":7
				}
			]
		},
		{
			"name":"Cube.005",
			"primitives":[
				{
					"attributes":{
						"POSITION":8,
						"NORMAL":9,
						"TEXCOORD_0":10
					},
					"indices":3
				}
			]
		},
		{
			"name":"\u7acb\u65b9\u4f53.010",
			"primitives":[
				{
					"attributes":{
						"POSITION":11,
						"NORMAL":12,
						"TEXCOORD_0":13
					},
					"indices":7
				}
			]
		},
		{
			"name":"\u7acb\u65b9\u4f53",
			"primitives":[
				{
					"attributes":{
						"POSITION":14,
						"NORMAL":15,
						"TEXCOORD_0":16
					},
					"indices":17,
					"material":0
				},
				{
					"attributes":{
						"POSITION":18,
						"NORMAL":19,
						"TEXCOORD_0":20
					},
					"indices":21,
					"material":1
				}
			]
		},
		{
			"name":"\u7acb\u65b9\u4f53.001",
			"primitives":[
				{
					"attributes":{
						"POSITION":22,
						"NORMAL":23,
						"TEXCOORD_0":24
					},
					"indices":25,
					"material":0
				},
				{
					"attributes":{
						"POSITION":26,
						"NORMAL":27,
						"TEXCOORD_0":28
					},
					"indices":29,
					"material":1
				}
			]
		},
		{
			"name":"\u7acb\u65b9\u4f53.004",
			"primitives":[
				{
					"attributes":{
						"POSITION":30,
						"NORMAL":31,
						"TEXCOORD_0":32
					},
					"indices":33,
					"material":0
				},
				{
					"attributes":{
						"POSITION":34,
						"NORMAL":35,
						"TEXCOORD_0":36
					},
					"indices":37,
					"material":1
				}
			]
		},
		{
			"name":"\u7acb\u65b9\u4f53.003",
			"primitives":[
				{
					"attributes":{
						"POSITION":38,
						"NORMAL":39,
						"TEXCOORD_0":40
					},
					"indices":41,
					"material":0
				},
				{
					"attributes":{
						"POSITION":42,
						"NORMAL":43,
						"TEXCOORD_0":44
					},
					"indices":45,
					"material":2
				}
			]
		},
		{
			"name":"\u7acb\u65b9\u4f53.006",
			"primitives":[
				{
					"attributes":{
						"POSITION":46,
						"NORMAL":47,
						"TEXCOORD_0":48
					},
					"indices":7,
					"material":0
				}
			]
		},
		{
			"name":"Cube.006",
			"primitives":[
				{
					"attributes":{
						"POSITION":49,
						"NORMAL":50,
						"TEXCOORD_0":51
					},
					"indices":3
				}
			]
		},
		{
			"name":"\u7acb\u65b9\u4f53.011",
			"primitives":[
				{
					"attributes":{
						"POSITION":52,
						"NORMAL":53,
						"TEXCOORD_0":54
					},
					"indices":7
				}
			]
		}
	],
	"textures":[
		{
			"sampler":0,
			"source":0
		},
		{
			"sampler":0,
			"source":1
		},
		{
			"sampler":0,
			"source":0
		}
	],
	"images":[
		{
			"mimeType":"image/png",
			"name":"sprite_0",
			"uri":"sprite_0.png"
		},
		{
			"mimeType":"image/png",
			"name":"sprite_1",
			"uri":"sprite_1.png"
		}
	],
	"accessors":[
		{
			"bufferView":0,
			"componentType":5126,
			"count":240,
			"max":[
				2,
				143.4213104248047,
				1.1414213180541992
			],
			"min":[
				-143.42141723632812,
				-2,
				-1.1414213180541992
			],
			"type":"VEC3"
		},
		{
			"bufferView":1,
			"componentType":5126,
			"count":240,
			"type":"VEC3"
		},
		{
			"bufferView":2,
			"componentType":5126,
			"count":240,
			"type":"VEC2"
		},
		{
			"bufferView":3,
			"componentType":5123,
			"count":360,
			"type":"SCALAR"
		},
		{
			"bufferView":4,
			"componentType":5126,
			"count":24,
			"max":[
				1,
				1,
				1
			],
			"min":[
				-1,
				-1,
				-1
			],
			"type":"VEC3"
		},
		{
			"bufferView":5,
			"componentType":5126,
			"count":24,
			"type":"VEC3"
		},
		{
			"bufferView":6,
			"componentType":5126,
			"count":24,
			"type":"VEC2"
		},
		{
			"bufferView":7,
			"componentType":5123,
			"count":36,
			"type":"SCALAR"
		},
		{
			"bufferView":8,
			"componentType":5126,
			"count":240,
			"max":[
				2,
				143.4213104248047,
				1.1414213180541992
			],
			"min":[
				-143.42141723632812,
				-2,
				-1.1414213180541992
			],
			"type":"VEC3"
		},
		{
			"bufferView":9,
			"componentType":5126,
			"count":240,
			"type":"VEC3"
		},
		{
			"bufferView":10,
			"componentType":5126,
			"count":240,
			"type":"VEC2"
		},
		{
			"bufferView":11,
			"componentType":5126,
			"count":24,
			"max":[
				1,
				1,
				1
			],
			"min":[
				-1,
				-1,
				-1
			],
			"type":"VEC3"
		},
		{
			"bufferView":12,
			"componentType":5126,
			"count":24,
			"type":"VEC3"
		},
		{
			"bufferView":13,
			"componentType":5126,
			"count":24,
			"type":"VEC2"
		},
		{
			"bufferView":14,
			"componentType":5126,
			"count":162,
			"max":[
				7,
				1.5999999046325684,
				4.3478288650512695
			],
			"min":[
				-3,
				-3,
				-5.6521711349487305
			],
			"type":"VEC3"
		},
		{
			"bufferView":15,
			"componentType":5126,
			"count":162,
			"type":"VEC3"
		},
		{
			"bufferView":16,
			"componentType":5126,
			"count":162,
			"type":"VEC2"
		},
		{
			"bufferView":17,
			"componentType":5123,
			"count":282,
			"type":"SCALAR"
		},
		{
			"bufferView":18,
			"componentType":5126,
			"count":11,
			"max":[
				7,
				1.0352733135223389,
				4.3478288650512695
			],
			"min":[
				-3,
				-3,
				-5.6521711349487305
			],
			"type":"VEC3"
		},
		{
			"bufferView":19,
			"componentType":5126,
			"count":11,
			"type":"VEC3"
		},
		{
			"bufferView":20,
			"componentType":5126,
			"count":11,
			"type":"VEC2"
		},
		{
			"bufferView":21,
			"componentType":5123,
			"count":21,
			"type":"SCALAR"
		},
		{
			"bufferView":22,
			"componentType":5126,
			"count":54,
			"max":[
				1,
				3.6000001430511475,
				1
			],
			"min":[
				-1,
				-1,
				-1
			],
			"type":"VEC3"
		},
		{
			"bufferView":23,
			"componentType":5126,
			"count":54,
			"type":"VEC3"
		},
		{
			"bufferView":24,
			"componentType":5126,
			"count":54,
			"type":"VEC2"
		},
		{
			"bufferView":25,
			"componentType":5123,
			"count":84,
			"type":"SCALAR"
		},
		{
			"bufferView":26,
			"componentType":5126,
			"count":6,
			"max":[
				1,
				-1,
				1
			],
			"min":[
				-1,
				-1,
				-1
			],
			"type":"VEC3"
		},
		{
			"bufferView":27,
			"componentType":5126,
			"count":6,
			"type":"VEC3"
		},
		{
			"bufferView":28,
			"componentType":5126,
			"count":6,
			"type":"VEC2"
		},
		{
			"bufferView":29,
			"componentType":5123,
			"count":12,
			"type":"SCALAR"
		},
		{
			"bufferView":30,
			"componentType":5126,
			"count":20,
			"max":[
				1,
				2,
				1
			],
			"min":[
				-1,
				-1,
				-1
			],
			"type":"VEC3"
		},
		{
			"bufferView":31,
			"componentType":5126,
			"count":20,
			"type":"VEC3"
		},
		{
			"bufferView":32,
			"componentType":5126,
			"count":20,
			"type":"VEC2"
		},
		{
			"bufferView":33,
			"componentType":5123,
			"count":30,
			"type":"SCALAR"
		},
		{
			"bufferView":34,
			"componentType":5126,
			"count":4,
			"max":[
				1,
				-1,
				1
			],
			"min":[
				-1,
				-1,
				-1
			],
			"type":"VEC3"
		},
		{
			"bufferView":35,
			"componentType":5126,
			"count":4,
			"type":"VEC3"
		},
		{
			"bufferView":36,
			"componentType":5126,
			"count":4,
			"type":"VEC2"
		},
		{
			"bufferView":37,
			"componentType":5123,
			"count":6,
			"type":"SCALAR"
		},
		{
			"bufferView":38,
			"componentType":5126,
			"count":52,
			"max":[
				4.270419120788574,
				1.4490679502487183,
				1.649627685546875
			],
			"min":[
				-13.996367454528809,
				-1.1447510719299316,
				-0.9999999403953552
			],
			"type":"VEC3"
		},
		{
			"bufferView":39,
			"componentType":5126,
			"count":52,
			"type":"VEC3"
		},
		{
			"bufferView":40,
			"componentType":5126,
			"count":52,
			"type":"VEC2"
		},
		{
			"bufferView":41,
			"componentType":5123,
			"count":78,
			"type":"SCALAR"
		},
		{
			"bufferView":42,
			"componentType":5126,
			"count":4,
			"max":[
				-12.814477920532227,
				1.4543355703353882,
				1.6419992446899414
			],
			"min":[
				-14.035752296447754,
				-1.1437851190567017,
				-0.9999999403953552
			],
			"type":"VEC3"
		},
		{
			"bufferView":43,
			"componentType":5126,
			"count":4,
			"type":"VEC3"
		},
		{
			"bufferView":44,
			"componentType":5126,
			"count":4,
			"type":"VEC2"
		},
		{
			"bufferView":45,
			"componentType":5123,
			"count":6,
			"type":"SCALAR"
		},
		{
			"bufferView":46,
			"componentType":5126,
			"count":24,
			"max":[
				1,
				1,
				1
			],
			"min":[
				-1,
				-1,
				-1
			],
			"type":"VEC3"
		},
		{
			"bufferView":47,
			"componentType":5126,
			"count":24,
			"type":"VEC3"
		},
		{
			"bufferView":48,
			"componentType":5126,
			"count":24,
			"type":"VEC2"
		},
		{
			"bufferView":49,
			"componentType":5126,
			"count":240,
			"max":[
				2,
				143.4213104248047,
				1.1414213180541992
			],
			"min":[
				-143.42141723632812,
				-2,
				-1.1414213180541992
			],
			"type":"VEC3"
		},
		{
			"bufferView":50,
			"componentType":5126,
			"count":240,
			"type":"VEC3"
		},
		{
			"bufferView":51,
			"componentType":5126,
			"count":240,
			"type":"VEC2"
		},
		{
			"bufferView":52,
			"componentType":5126,
			"count":24,
			"max":[
				1,
				1,
				1
			],
			"min":[
				-1,
				-1,
				-1
			],
			"type":"VEC3"
		},
		{
			"bufferView":53,
			"componentType":5126,
			"count":24,
			"type":"VEC3"
		},
		{
			"bufferView":54,
			"componentType":5126,
			"count":24,
			"type":"VEC2"
		}
	],
	"bufferViews":[
		{
			"buffer":0,
			"byteLength":2880,
			"byteOffset":0,
			"target":34962
		},
		{
			"buffer":0,
			"byteLength":2880,
			"byteOffset":2880,
			"target":34962
		},
		{
			"buffer":0,
			"byteLength":1920,
			"byteOffset":5760,
			"target":34962
		},
		{
			"buffer":0,
			"byteLength":720,
			"byteOffset":7680,
			"target":34963
		},
		{
			"buffer":0,
			"byteLength":288,
			"byteOffset":8400,
			"target":34962
		},
		{
			"buffer":0,
			"byteLength":288,
			"byteOffset":8688,
			"target":34962
		},
		{
			"buffer":0,
			"byteLength":192,
			"byteOffset":8976,
			"target":34962
		},
		{
			"buffer":0,
			"byteLength":72,
			"byteOffset":9168,
			"target":34963
		},
		{
			"buffer":0,
			"byteLength":2880,
			"byteOffset":9240,
			"target":34962
		},
		{
			"buffer":0,
			"byteLength":2880,
			"byteOffset":12120,
			"target":34962
		},
		{
			"buffer":0,
			"byteLength":1920,
			"byteOffset":15000,
			"target":34962
		},
		{
			"buffer":0,
			"byteLength":288,
			"byteOffset":16920,
			"target":34962
		},
		{
			"buffer":0,
			"byteLength":288,
			"byteOffset":17208,
			"target":34962
		},
		{
			"buffer":0,
			"byteLength":192,
			"byteOffset":17496,
			"target":34962
		},
		{
			"buffer":0,
			"byteLength":1944,
			"byteOffset":17688,
			"target":34962
		},
		{
			"buffer":0,
			"byteLength":1944,
			"byteOffset":19632,
			"target":34962
		},
		{
			"buffer":0,
			"byteLength":1296,
			"byteOffset":21576,
			"target":34962
		},
		{
			"buffer":0,
			"byteLength":564,
			"byteOffset":22872,
			"target":34963
		},
		{
			"buffer":0,
			"byteLength":132,
			"byteOffset":23436,
			"target":34962
		},
		{
			"buffer":0,
			"byteLength":132,
			"byteOffset":23568,
			"target":34962
		},
		{
			"buffer":0,
			"byteLength":88,
			"byteOffset":23700,
			"target":34962
		},
		{
			"buffer":0,
			"byteLength":42,
			"byteOffset":23788,
			"target":34963
		},
		{
			"buffer":0,
			"byteLength":648,
			"byteOffset":23832,
			"target":34962
		},
		{
			"buffer":0,
			"byteLength":648,
			"byteOffset":24480,
			"target":34962
		},
		{
			"buffer":0,
			"byteLength":432,
			"byteOffset":25128,
			"target":34962
		},
		{
			"buffer":0,
			"byteLength":168,
			"byteOffset":25560,
			"target":34963
		},
		{
			"buffer":0,
			"byteLength":72,
			"byteOffset":25728,
			"target":34962
		},
		{
			"buffer":0,
			"byteLength":72,
			"byteOffset":25800,
			"target":34962
		},
		{
			"buffer":0,
			"byteLength":48,
			"byteOffset":25872,
			"target":34962
		},
		{
			"buffer":0,
			"byteLength":24,
			"byteOffset":25920,
			"target":34963
		},
		{
			"buffer":0,
			"byteLength":240,
			"byteOffset":25944,
			"target":34962
		},
		{
			"buffer":0,
			"byteLength":240,
			"byteOffset":26184,
			"target":34962
		},
		{
			"buffer":0,
			"byteLength":160,
			"byteOffset":26424,
			"target":34962
		},
		{
			"buffer":0,
			"byteLength":60,
			"byteOffset":26584,
			"target":34963
		},
		{
			"buffer":0,
			"byteLength":48,
			"byteOffset":26644,
			"target":34962
		},
		{
			"buffer":0,
			"byteLength":48,
			"byteOffset":26692,
			"target":34962
		},
		{
			"buffer":0,
			"byteLength":32,
			"byteOffset":26740,
			"target":34962
		},
		{
			"buffer":0,
			"byteLength":12,
			"byteOffset":26772,
			"target":34963
		},
		{
			"buffer":0,
			"byteLength":624,
			"byteOffset":26784,
			"target":34962
		},
		{
			"buffer":0,
			"byteLength":624,
			"byteOffset":27408,
			"target":34962
		},
		{
			"buffer":0,
			"byteLength":416,
			"byteOffset":28032,
			"target":34962
		},
		{
			"buffer":0,
			"byteLength":156,
			"byteOffset":28448,
			"target":34963
		},
		{
			"buffer":0,
			"byteLength":48,
			"byteOffset":28604,
			"target":34962
		},
		{
			"buffer":0,
			"byteLength":48,
			"byteOffset":28652,
			"target":34962
		},
		{
			"buffer":0,
			"byteLength":32,
			"byteOffset":28700,
			"target":34962
		},
		{
			"buffer":0,
			"byteLength":12,
			"byteOffset":28732,
			"target":34963
		},
		{
			"buffer":0,
			"byteLength":288,
			"byteOffset":28744,
			"target":34962
		},
		{
			"buffer":0,
			"byteLength":288,
			"byteOffset":29032,
			"target":34962
		},
		{
			"buffer":0,
			"byteLength":192,
			"byteOffset":29320,
			"target":34962
		},
		{
			"buffer":0,
			"byteLength":2880,
			"byteOffset":29512,
			"target":34962
		},
		{
			"buffer":0,
			"byteLength":2880,
			"byteOffset":32392,
			"target":34962
		},
		{
			"buffer":0,
			"byteLength":1920,
			"byteOffset":35272,
			"target":34962
		},
		{
			"buffer":0,
			"byteLength":288,
			"byteOffset":37192,
			"target":34962
		},
		{
			"buffer":0,
			"byteLength":288,
			"byteOffset":37480,
			"target":34962
		},
		{
			"buffer":0,
			"byteLength":192,
			"byteOffset":37768,
			"target":34962
		}
	],
	"samplers":[
		{
			"magFilter":9729,
			"minFilter":9987
		}
	],
	"buffers":[
		{
			"byteLength":37960,
			"uri":"ladder3.bin"
		}
	]
}
