{
	"asset":{
		"generator":"Khronos glTF Blender I/O v4.1.62",
		"version":"2.0"
	},
	"scene":0,
	"scenes":[
		{
			"name":"Scene",
			"nodes":[
				0,
				1
			]
		}
	],
	"nodes":[
		{
			"mesh":0,
			"name":"\u30b9\u30c6\u30fc\u30b8\u5168\u4f53",
			"scale":[
				1,
				0.800000011920929,
				1
			],
			"translation":[
				-4,
				3.799999952316284,
				-2
			]
		},
		{
			"mesh":1,
			"name":"\u901a\u8def",
			"translation":[
				-2.1519417762756348,
				3,
				0.6225718855857849
			]
		}
	],
	"materials":[
		{
			"doubleSided":true,
			"name":"\u30de\u30c6\u30ea\u30a2\u30eb.003",
			"pbrMetallicRoughness":{
				"baseColorTexture":{
					"index":0
				},
				"metallicFactor":0,
				"roughnessFactor":0.5
			}
		},
		{
			"doubleSided":true,
			"name":"\u30de\u30c6\u30ea\u30a2\u30eb",
			"pbrMetallicRoughness":{
				"baseColorFactor":[
					0.800000011920929,
					0.800000011920929,
					0.800000011920929,
					1
				],
				"metallicFactor":0,
				"roughnessFactor":0.5
			}
		}
	],
	"meshes":[
		{
			"name":"\u7acb\u65b9\u4f53.004",
			"primitives":[
				{
					"attributes":{
						"POSITION":0,
						"NORMAL":1,
						"TEXCOORD_0":2
					},
					"indices":3,
					"material":0
				},
				{
					"attributes":{
						"POSITION":4,
						"NORMAL":5,
						"TEXCOORD_0":6
					},
					"indices":7,
					"material":1
				}
			]
		},
		{
			"name":"\u7acb\u65b9\u4f53",
			"primitives":[
				{
					"attributes":{
						"POSITION":8,
						"NORMAL":9,
						"TEXCOORD_0":10
					},
					"indices":11
				}
			]
		}
	],
	"textures":[
		{
			"sampler":0,
			"source":0
		}
	],
	"images":[
		{
			"mimeType":"image/png",
			"name":"sprite_0",
			"uri":"sprite_0.png"
		}
	],
	"accessors":[
		{
			"bufferView":0,
			"componentType":5126,
			"count":148,
			"max":[
				9,
				1,
				7
			],
			"min":[
				-1,
				-4.75,
				-3
			],
			"type":"VEC3"
		},
		{
			"bufferView":1,
			"componentType":5126,
			"count":148,
			"type":"VEC3"
		},
		{
			"bufferView":2,
			"componentType":5126,
			"count":148,
			"type":"VEC2"
		},
		{
			"bufferView":3,
			"componentType":5123,
			"count":246,
			"type":"SCALAR"
		},
		{
			"bufferView":4,
			"componentType":5126,
			"count":9,
			"max":[
				0.8787620663642883,
				1,
				7
			],
			"min":[
				-1,
				-2.2522687911987305,
				1
			],
			"type":"VEC3"
		},
		{
			"bufferView":5,
			"componentType":5126,
			"count":9,
			"type":"VEC3"
		},
		{
			"bufferView":6,
			"componentType":5126,
			"count":9,
			"type":"VEC2"
		},
		{
			"bufferView":7,
			"componentType":5123,
			"count":15,
			"type":"SCALAR"
		},
		{
			"bufferView":8,
			"componentType":5126,
			"count":16,
			"max":[
				1.0776299238204956,
				1.588766098022461,
				1.0192047357559204
			],
			"min":[
				-1,
				-1,
				-1.6396161317825317
			],
			"type":"VEC3"
		},
		{
			"bufferView":9,
			"componentType":5126,
			"count":16,
			"type":"VEC3"
		},
		{
			"bufferView":10,
			"componentType":5126,
			"count":16,
			"type":"VEC2"
		},
		{
			"bufferView":11,
			"componentType":5123,
			"count":24,
			"type":"SCALAR"
		}
	],
	"bufferViews":[
		{
			"buffer":0,
			"byteLength":1776,
			"byteOffset":0,
			"target":34962
		},
		{
			"buffer":0,
			"byteLength":1776,
			"byteOffset":1776,
			"target":34962
		},
		{
			"buffer":0,
			"byteLength":1184,
			"byteOffset":3552,
			"target":34962
		},
		{
			"buffer":0,
			"byteLength":492,
			"byteOffset":4736,
			"target":34963
		},
		{
			"buffer":0,
			"byteLength":108,
			"byteOffset":5228,
			"target":34962
		},
		{
			"buffer":0,
			"byteLength":108,
			"byteOffset":5336,
			"target":34962
		},
		{
			"buffer":0,
			"byteLength":72,
			"byteOffset":5444,
			"target":34962
		},
		{
			"buffer":0,
			"byteLength":30,
			"byteOffset":5516,
			"target":34963
		},
		{
			"buffer":0,
			"byteLength":192,
			"byteOffset":5548,
			"target":34962
		},
		{
			"buffer":0,
			"byteLength":192,
			"byteOffset":5740,
			"target":34962
		},
		{
			"buffer":0,
			"byteLength":128,
			"byteOffset":5932,
			"target":34962
		},
		{
			"buffer":0,
			"byteLength":48,
			"byteOffset":6060,
			"target":34963
		}
	],
	"samplers":[
		{
			"magFilter":9729,
			"minFilter":9987
		}
	],
	"buffers":[
		{
			"byteLength":6108,
			"uri":"stage6.bin"
		}
	]
}
