{
	"asset":{
		"generator":"Khronos glTF Blender I/O v4.1.62",
		"version":"2.0"
	},
	"scene":0,
	"scenes":[
		{
			"name":"Scene",
			"nodes":[
				0,
				1
			]
		}
	],
	"nodes":[
		{
			"mesh":0,
			"name":"\u7acb\u65b9\u4f53",
			"translation":[
				-2,
				3,
				0.6521708965301514
			]
		},
		{
			"mesh":1,
			"name":"\u901a\u8def",
			"rotation":[
				1,
				0,
				0,
				0
			],
			"scale":[
				-0.12297296524047852,
				-1,
				-1
			],
			"translation":[
				-2.78959059715271,
				3.139376640319824,
				0
			]
		}
	],
	"materials":[
		{
			"doubleSided":true,
			"name":"\u30de\u30c6\u30ea\u30a2\u30eb.001",
			"pbrMetallicRoughness":{
				"baseColorTexture":{
					"index":0
				},
				"metallicFactor":0,
				"roughnessFactor":0.5
			}
		},
		{
			"doubleSided":true,
			"name":"\u30de\u30c6\u30ea\u30a2\u30eb.010",
			"pbrMetallicRoughness":{
				"baseColorTexture":{
					"index":1
				},
				"metallicFactor":0,
				"roughnessFactor":0.5
			}
		},
		{
			"doubleSided":true,
			"name":"\u30de\u30c6\u30ea\u30a2\u30eb.008",
			"pbrMetallicRoughness":{
				"baseColorTexture":{
					"index":2
				},
				"metallicFactor":0,
				"roughnessFactor":0.5
			}
		}
	],
	"meshes":[
		{
			"name":"\u7acb\u65b9\u4f53",
			"primitives":[
				{
					"attributes":{
						"POSITION":0,
						"NORMAL":1,
						"TEXCOORD_0":2
					},
					"indices":3,
					"material":0
				},
				{
					"attributes":{
						"POSITION":4,
						"NORMAL":5,
						"TEXCOORD_0":6
					},
					"indices":7,
					"material":1
				}
			]
		},
		{
			"name":"\u7acb\u65b9\u4f53.003",
			"primitives":[
				{
					"attributes":{
						"POSITION":8,
						"NORMAL":9,
						"TEXCOORD_0":10
					},
					"indices":11,
					"material":0
				},
				{
					"attributes":{
						"POSITION":12,
						"NORMAL":13,
						"TEXCOORD_0":14
					},
					"indices":15,
					"material":2
				}
			]
		}
	],
	"textures":[
		{
			"sampler":0,
			"source":0
		},
		{
			"sampler":0,
			"source":1
		},
		{
			"sampler":0,
			"source":0
		}
	],
	"images":[
		{
			"mimeType":"image/png",
			"name":"sprite_0",
			"uri":"sprite_0.png"
		},
		{
			"mimeType":"image/png",
			"name":"sprite_1",
			"uri":"sprite_1.png"
		}
	],
	"accessors":[
		{
			"bufferView":0,
			"componentType":5126,
			"count":152,
			"max":[
				7,
				1.5999999046325684,
				4.3478288650512695
			],
			"min":[
				-3,
				-3,
				-5.6521711349487305
			],
			"type":"VEC3"
		},
		{
			"bufferView":1,
			"componentType":5126,
			"count":152,
			"type":"VEC3"
		},
		{
			"bufferView":2,
			"componentType":5126,
			"count":152,
			"type":"VEC2"
		},
		{
			"bufferView":3,
			"componentType":5123,
			"count":252,
			"type":"SCALAR"
		},
		{
			"bufferView":4,
			"componentType":5126,
			"count":5,
			"max":[
				-1.1212379932403564,
				1.0352733135223389,
				3.0720837116241455
			],
			"min":[
				-1.1212379932403564,
				-1.0018150806427002,
				0.9554963111877441
			],
			"type":"VEC3"
		},
		{
			"bufferView":5,
			"componentType":5126,
			"count":5,
			"type":"VEC3"
		},
		{
			"bufferView":6,
			"componentType":5126,
			"count":5,
			"type":"VEC2"
		},
		{
			"bufferView":7,
			"componentType":5123,
			"count":9,
			"type":"SCALAR"
		},
		{
			"bufferView":8,
			"componentType":5126,
			"count":52,
			"max":[
				4.270419120788574,
				1.4490679502487183,
				1.649627685546875
			],
			"min":[
				-13.996367454528809,
				-1.1447510719299316,
				-0.9999999403953552
			],
			"type":"VEC3"
		},
		{
			"bufferView":9,
			"componentType":5126,
			"count":52,
			"type":"VEC3"
		},
		{
			"bufferView":10,
			"componentType":5126,
			"count":52,
			"type":"VEC2"
		},
		{
			"bufferView":11,
			"componentType":5123,
			"count":78,
			"type":"SCALAR"
		},
		{
			"bufferView":12,
			"componentType":5126,
			"count":4,
			"max":[
				-12.814477920532227,
				1.4543355703353882,
				1.6419992446899414
			],
			"min":[
				-14.035752296447754,
				-1.1437851190567017,
				-0.9999999403953552
			],
			"type":"VEC3"
		},
		{
			"bufferView":13,
			"componentType":5126,
			"count":4,
			"type":"VEC3"
		},
		{
			"bufferView":14,
			"componentType":5126,
			"count":4,
			"type":"VEC2"
		},
		{
			"bufferView":15,
			"componentType":5123,
			"count":6,
			"type":"SCALAR"
		}
	],
	"bufferViews":[
		{
			"buffer":0,
			"byteLength":1824,
			"byteOffset":0,
			"target":34962
		},
		{
			"buffer":0,
			"byteLength":1824,
			"byteOffset":1824,
			"target":34962
		},
		{
			"buffer":0,
			"byteLength":1216,
			"byteOffset":3648,
			"target":34962
		},
		{
			"buffer":0,
			"byteLength":504,
			"byteOffset":4864,
			"target":34963
		},
		{
			"buffer":0,
			"byteLength":60,
			"byteOffset":5368,
			"target":34962
		},
		{
			"buffer":0,
			"byteLength":60,
			"byteOffset":5428,
			"target":34962
		},
		{
			"buffer":0,
			"byteLength":40,
			"byteOffset":5488,
			"target":34962
		},
		{
			"buffer":0,
			"byteLength":18,
			"byteOffset":5528,
			"target":34963
		},
		{
			"buffer":0,
			"byteLength":624,
			"byteOffset":5548,
			"target":34962
		},
		{
			"buffer":0,
			"byteLength":624,
			"byteOffset":6172,
			"target":34962
		},
		{
			"buffer":0,
			"byteLength":416,
			"byteOffset":6796,
			"target":34962
		},
		{
			"buffer":0,
			"byteLength":156,
			"byteOffset":7212,
			"target":34963
		},
		{
			"buffer":0,
			"byteLength":48,
			"byteOffset":7368,
			"target":34962
		},
		{
			"buffer":0,
			"byteLength":48,
			"byteOffset":7416,
			"target":34962
		},
		{
			"buffer":0,
			"byteLength":32,
			"byteOffset":7464,
			"target":34962
		},
		{
			"buffer":0,
			"byteLength":12,
			"byteOffset":7496,
			"target":34963
		}
	],
	"samplers":[
		{
			"magFilter":9729,
			"minFilter":9987
		}
	],
	"buffers":[
		{
			"byteLength":7508,
			"uri":"stage8.bin"
		}
	]
}
