{
	"asset":{
		"generator":"Khronos glTF Blender I/O v4.1.62",
		"version":"2.0"
	},
	"scene":0,
	"scenes":[
		{
			"name":"Scene",
			"nodes":[
				0,
				1,
				2,
				3,
				4
			]
		}
	],
	"nodes":[
		{
			"mesh":0,
			"name":"\u7acb\u65b9\u4f53",
			"translation":[
				-2,
				3,
				0.6521708965301514
			]
		},
		{
			"mesh":1,
			"name":"\u7acb\u65b9\u4f53.001",
			"scale":[
				3,
				1,
				5
			],
			"translation":[
				-8,
				1,
				0
			]
		},
		{
			"mesh":2,
			"name":"\u7acb\u65b9\u4f53.003",
			"scale":[
				8,
				1,
				5
			],
			"translation":[
				-3,
				1,
				-10
			]
		},
		{
			"mesh":3,
			"name":"\u901a\u8def",
			"rotation":[
				1,
				0,
				0,
				0
			],
			"scale":[
				-0.12297296524047852,
				-1,
				-1
			],
			"translation":[
				-2.78959059715271,
				3.139376640319824,
				0
			]
		},
		{
			"mesh":4,
			"name":"\u7acb\u65b9\u4f53.002",
			"translation":[
				-10,
				4,
				-13.983859062194824
			]
		}
	],
	"materials":[
		{
			"doubleSided":true,
			"name":"\u30de\u30c6\u30ea\u30a2\u30eb.001",
			"pbrMetallicRoughness":{
				"baseColorTexture":{
					"index":0
				},
				"metallicFactor":0,
				"roughnessFactor":0.5
			}
		},
		{
			"doubleSided":true,
			"name":"\u30de\u30c6\u30ea\u30a2\u30eb.010",
			"pbrMetallicRoughness":{
				"baseColorTexture":{
					"index":1
				},
				"metallicFactor":0,
				"roughnessFactor":0.5
			}
		},
		{
			"doubleSided":true,
			"name":"\u30de\u30c6\u30ea\u30a2\u30eb.008",
			"pbrMetallicRoughness":{
				"baseColorTexture":{
					"index":2
				},
				"metallicFactor":0,
				"roughnessFactor":0.5
			}
		}
	],
	"meshes":[
		{
			"name":"\u7acb\u65b9\u4f53",
			"primitives":[
				{
					"attributes":{
						"POSITION":0,
						"NORMAL":1,
						"TEXCOORD_0":2
					},
					"indices":3,
					"material":0
				},
				{
					"attributes":{
						"POSITION":4,
						"NORMAL":5,
						"TEXCOORD_0":6
					},
					"indices":7,
					"material":1
				}
			]
		},
		{
			"name":"\u7acb\u65b9\u4f53.001",
			"primitives":[
				{
					"attributes":{
						"POSITION":8,
						"NORMAL":9,
						"TEXCOORD_0":10
					},
					"indices":11,
					"material":0
				},
				{
					"attributes":{
						"POSITION":12,
						"NORMAL":13,
						"TEXCOORD_0":14
					},
					"indices":15,
					"material":1
				}
			]
		},
		{
			"name":"\u7acb\u65b9\u4f53.004",
			"primitives":[
				{
					"attributes":{
						"POSITION":16,
						"NORMAL":17,
						"TEXCOORD_0":18
					},
					"indices":19,
					"material":0
				},
				{
					"attributes":{
						"POSITION":20,
						"NORMAL":21,
						"TEXCOORD_0":22
					},
					"indices":23,
					"material":1
				}
			]
		},
		{
			"name":"\u7acb\u65b9\u4f53.003",
			"primitives":[
				{
					"attributes":{
						"POSITION":24,
						"NORMAL":25,
						"TEXCOORD_0":26
					},
					"indices":27,
					"material":0
				},
				{
					"attributes":{
						"POSITION":28,
						"NORMAL":29,
						"TEXCOORD_0":30
					},
					"indices":31,
					"material":2
				}
			]
		},
		{
			"name":"\u7acb\u65b9\u4f53.006",
			"primitives":[
				{
					"attributes":{
						"POSITION":32,
						"NORMAL":33,
						"TEXCOORD_0":34
					},
					"indices":35,
					"material":0
				}
			]
		}
	],
	"textures":[
		{
			"sampler":0,
			"source":0
		},
		{
			"sampler":0,
			"source":1
		},
		{
			"sampler":0,
			"source":0
		}
	],
	"images":[
		{
			"mimeType":"image/png",
			"name":"sprite_0",
			"uri":"sprite_0.png"
		},
		{
			"mimeType":"image/png",
			"name":"sprite_1",
			"uri":"sprite_1.png"
		}
	],
	"accessors":[
		{
			"bufferView":0,
			"componentType":5126,
			"count":162,
			"max":[
				7,
				1.5999999046325684,
				4.3478288650512695
			],
			"min":[
				-3,
				-3,
				-5.6521711349487305
			],
			"type":"VEC3"
		},
		{
			"bufferView":1,
			"componentType":5126,
			"count":162,
			"type":"VEC3"
		},
		{
			"bufferView":2,
			"componentType":5126,
			"count":162,
			"type":"VEC2"
		},
		{
			"bufferView":3,
			"componentType":5123,
			"count":282,
			"type":"SCALAR"
		},
		{
			"bufferView":4,
			"componentType":5126,
			"count":11,
			"max":[
				7,
				1.0352733135223389,
				4.3478288650512695
			],
			"min":[
				-3,
				-3,
				-5.6521711349487305
			],
			"type":"VEC3"
		},
		{
			"bufferView":5,
			"componentType":5126,
			"count":11,
			"type":"VEC3"
		},
		{
			"bufferView":6,
			"componentType":5126,
			"count":11,
			"type":"VEC2"
		},
		{
			"bufferView":7,
			"componentType":5123,
			"count":21,
			"type":"SCALAR"
		},
		{
			"bufferView":8,
			"componentType":5126,
			"count":54,
			"max":[
				1,
				3.6000001430511475,
				1
			],
			"min":[
				-1,
				-1,
				-1
			],
			"type":"VEC3"
		},
		{
			"bufferView":9,
			"componentType":5126,
			"count":54,
			"type":"VEC3"
		},
		{
			"bufferView":10,
			"componentType":5126,
			"count":54,
			"type":"VEC2"
		},
		{
			"bufferView":11,
			"componentType":5123,
			"count":84,
			"type":"SCALAR"
		},
		{
			"bufferView":12,
			"componentType":5126,
			"count":6,
			"max":[
				1,
				-1,
				1
			],
			"min":[
				-1,
				-1,
				-1
			],
			"type":"VEC3"
		},
		{
			"bufferView":13,
			"componentType":5126,
			"count":6,
			"type":"VEC3"
		},
		{
			"bufferView":14,
			"componentType":5126,
			"count":6,
			"type":"VEC2"
		},
		{
			"bufferView":15,
			"componentType":5123,
			"count":12,
			"type":"SCALAR"
		},
		{
			"bufferView":16,
			"componentType":5126,
			"count":20,
			"max":[
				1,
				2,
				1
			],
			"min":[
				-1,
				-1,
				-1
			],
			"type":"VEC3"
		},
		{
			"bufferView":17,
			"componentType":5126,
			"count":20,
			"type":"VEC3"
		},
		{
			"bufferView":18,
			"componentType":5126,
			"count":20,
			"type":"VEC2"
		},
		{
			"bufferView":19,
			"componentType":5123,
			"count":30,
			"type":"SCALAR"
		},
		{
			"bufferView":20,
			"componentType":5126,
			"count":4,
			"max":[
				1,
				-1,
				1
			],
			"min":[
				-1,
				-1,
				-1
			],
			"type":"VEC3"
		},
		{
			"bufferView":21,
			"componentType":5126,
			"count":4,
			"type":"VEC3"
		},
		{
			"bufferView":22,
			"componentType":5126,
			"count":4,
			"type":"VEC2"
		},
		{
			"bufferView":23,
			"componentType":5123,
			"count":6,
			"type":"SCALAR"
		},
		{
			"bufferView":24,
			"componentType":5126,
			"count":52,
			"max":[
				4.270419120788574,
				1.4490679502487183,
				1.649627685546875
			],
			"min":[
				-13.996367454528809,
				-1.1447510719299316,
				-0.9999999403953552
			],
			"type":"VEC3"
		},
		{
			"bufferView":25,
			"componentType":5126,
			"count":52,
			"type":"VEC3"
		},
		{
			"bufferView":26,
			"componentType":5126,
			"count":52,
			"type":"VEC2"
		},
		{
			"bufferView":27,
			"componentType":5123,
			"count":78,
			"type":"SCALAR"
		},
		{
			"bufferView":28,
			"componentType":5126,
			"count":4,
			"max":[
				-12.814477920532227,
				1.4543355703353882,
				1.6419992446899414
			],
			"min":[
				-14.035752296447754,
				-1.1437851190567017,
				-0.9999999403953552
			],
			"type":"VEC3"
		},
		{
			"bufferView":29,
			"componentType":5126,
			"count":4,
			"type":"VEC3"
		},
		{
			"bufferView":30,
			"componentType":5126,
			"count":4,
			"type":"VEC2"
		},
		{
			"bufferView":31,
			"componentType":5123,
			"count":6,
			"type":"SCALAR"
		},
		{
			"bufferView":32,
			"componentType":5126,
			"count":24,
			"max":[
				1,
				1,
				1
			],
			"min":[
				-1,
				-1,
				-1
			],
			"type":"VEC3"
		},
		{
			"bufferView":33,
			"componentType":5126,
			"count":24,
			"type":"VEC3"
		},
		{
			"bufferView":34,
			"componentType":5126,
			"count":24,
			"type":"VEC2"
		},
		{
			"bufferView":35,
			"componentType":5123,
			"count":36,
			"type":"SCALAR"
		}
	],
	"bufferViews":[
		{
			"buffer":0,
			"byteLength":1944,
			"byteOffset":0,
			"target":34962
		},
		{
			"buffer":0,
			"byteLength":1944,
			"byteOffset":1944,
			"target":34962
		},
		{
			"buffer":0,
			"byteLength":1296,
			"byteOffset":3888,
			"target":34962
		},
		{
			"buffer":0,
			"byteLength":564,
			"byteOffset":5184,
			"target":34963
		},
		{
			"buffer":0,
			"byteLength":132,
			"byteOffset":5748,
			"target":34962
		},
		{
			"buffer":0,
			"byteLength":132,
			"byteOffset":5880,
			"target":34962
		},
		{
			"buffer":0,
			"byteLength":88,
			"byteOffset":6012,
			"target":34962
		},
		{
			"buffer":0,
			"byteLength":42,
			"byteOffset":6100,
			"target":34963
		},
		{
			"buffer":0,
			"byteLength":648,
			"byteOffset":6144,
			"target":34962
		},
		{
			"buffer":0,
			"byteLength":648,
			"byteOffset":6792,
			"target":34962
		},
		{
			"buffer":0,
			"byteLength":432,
			"byteOffset":7440,
			"target":34962
		},
		{
			"buffer":0,
			"byteLength":168,
			"byteOffset":7872,
			"target":34963
		},
		{
			"buffer":0,
			"byteLength":72,
			"byteOffset":8040,
			"target":34962
		},
		{
			"buffer":0,
			"byteLength":72,
			"byteOffset":8112,
			"target":34962
		},
		{
			"buffer":0,
			"byteLength":48,
			"byteOffset":8184,
			"target":34962
		},
		{
			"buffer":0,
			"byteLength":24,
			"byteOffset":8232,
			"target":34963
		},
		{
			"buffer":0,
			"byteLength":240,
			"byteOffset":8256,
			"target":34962
		},
		{
			"buffer":0,
			"byteLength":240,
			"byteOffset":8496,
			"target":34962
		},
		{
			"buffer":0,
			"byteLength":160,
			"byteOffset":8736,
			"target":34962
		},
		{
			"buffer":0,
			"byteLength":60,
			"byteOffset":8896,
			"target":34963
		},
		{
			"buffer":0,
			"byteLength":48,
			"byteOffset":8956,
			"target":34962
		},
		{
			"buffer":0,
			"byteLength":48,
			"byteOffset":9004,
			"target":34962
		},
		{
			"buffer":0,
			"byteLength":32,
			"byteOffset":9052,
			"target":34962
		},
		{
			"buffer":0,
			"byteLength":12,
			"byteOffset":9084,
			"target":34963
		},
		{
			"buffer":0,
			"byteLength":624,
			"byteOffset":9096,
			"target":34962
		},
		{
			"buffer":0,
			"byteLength":624,
			"byteOffset":9720,
			"target":34962
		},
		{
			"buffer":0,
			"byteLength":416,
			"byteOffset":10344,
			"target":34962
		},
		{
			"buffer":0,
			"byteLength":156,
			"byteOffset":10760,
			"target":34963
		},
		{
			"buffer":0,
			"byteLength":48,
			"byteOffset":10916,
			"target":34962
		},
		{
			"buffer":0,
			"byteLength":48,
			"byteOffset":10964,
			"target":34962
		},
		{
			"buffer":0,
			"byteLength":32,
			"byteOffset":11012,
			"target":34962
		},
		{
			"buffer":0,
			"byteLength":12,
			"byteOffset":11044,
			"target":34963
		},
		{
			"buffer":0,
			"byteLength":288,
			"byteOffset":11056,
			"target":34962
		},
		{
			"buffer":0,
			"byteLength":288,
			"byteOffset":11344,
			"target":34962
		},
		{
			"buffer":0,
			"byteLength":192,
			"byteOffset":11632,
			"target":34962
		},
		{
			"buffer":0,
			"byteLength":72,
			"byteOffset":11824,
			"target":34963
		}
	],
	"samplers":[
		{
			"magFilter":9729,
			"minFilter":9987
		}
	],
	"buffers":[
		{
			"byteLength":11896,
			"uri":"stage11gltf.bin"
		}
	]
}
