{
	"asset":{
		"generator":"Khronos glTF Blender I/O v4.1.62",
		"version":"2.0"
	},
	"scene":0,
	"scenes":[
		{
			"name":"Scene",
			"nodes":[
				0,
				1,
				2,
				3,
				4
			]
		}
	],
	"nodes":[
		{
			"mesh":0,
			"name":"stage",
			"scale":[
				1.4381643533706665,
				1.5467593669891357,
				8.176756858825684
			],
			"translation":[
				0,
				1,
				0
			]
		},
		{
			"mesh":1,
			"name":"\u7acb\u65b9\u4f53.005",
			"scale":[
				0.9900000095367432,
				0.9900000095367432,
				0.9900000095367432
			],
			"translation":[
				8.359057426452637,
				1,
				0
			]
		},
		{
			"mesh":2,
			"name":"wall",
			"scale":[
				1.4324456453323364,
				1,
				0.32444941997528076
			],
			"translation":[
				0.4896388053894043,
				2.450000047683716,
				3.882636785507202
			]
		},
		{
			"mesh":3,
			"name":"wall.001",
			"scale":[
				1.8900200128555298,
				1,
				0.2207348793745041
			],
			"translation":[
				0.03311367332935333,
				2.450000047683716,
				-7.8453145027160645
			]
		},
		{
			"mesh":4,
			"name":"box",
			"scale":[
				1.8799999952316284,
				1,
				0.7620707750320435
			],
			"translation":[
				0.07186053693294525,
				2.471376895904541,
				-0.766765296459198
			]
		}
	],
	"materials":[
		{
			"doubleSided":true,
			"name":"Material",
			"pbrMetallicRoughness":{
				"baseColorFactor":[
					0,
					0.013915883377194405,
					0.8001017570495605,
					1
				],
				"metallicFactor":0,
				"roughnessFactor":0.5
			}
		},
		{
			"doubleSided":true,
			"name":"\u30de\u30c6\u30ea\u30a2\u30eb",
			"pbrMetallicRoughness":{
				"baseColorFactor":[
					0,
					0,
					0,
					1
				],
				"metallicFactor":0,
				"roughnessFactor":0.5
			}
		},
		{
			"doubleSided":true,
			"name":"\u30de\u30c6\u30ea\u30a2\u30eb.002",
			"pbrMetallicRoughness":{
				"metallicFactor":0,
				"roughnessFactor":0.5
			}
		}
	],
	"meshes":[
		{
			"name":"Cube",
			"primitives":[
				{
					"attributes":{
						"POSITION":0,
						"NORMAL":1,
						"TEXCOORD_0":2,
						"TEXCOORD_1":3
					},
					"indices":4,
					"material":0
				}
			]
		},
		{
			"name":"\u7acb\u65b9\u4f53.006",
			"primitives":[
				{
					"attributes":{
						"POSITION":5,
						"NORMAL":6,
						"TEXCOORD_0":7
					},
					"indices":8,
					"material":1
				}
			]
		},
		{
			"name":"\u7acb\u65b9\u4f53.001",
			"primitives":[
				{
					"attributes":{
						"POSITION":9,
						"NORMAL":10,
						"TEXCOORD_0":11
					},
					"indices":12
				}
			]
		},
		{
			"name":"\u7acb\u65b9\u4f53.003",
			"primitives":[
				{
					"attributes":{
						"POSITION":13,
						"NORMAL":14,
						"TEXCOORD_0":15
					},
					"indices":12
				}
			]
		},
		{
			"name":"\u7acb\u65b9\u4f53.004",
			"primitives":[
				{
					"attributes":{
						"POSITION":16,
						"NORMAL":17,
						"TEXCOORD_0":18
					},
					"indices":19,
					"material":2
				}
			]
		}
	],
	"accessors":[
		{
			"bufferView":0,
			"componentType":5126,
			"count":72,
			"max":[
				1.5902190208435059,
				1.5839568376541138,
				1.0045870542526245
			],
			"min":[
				-1.5898667573928833,
				-0.2996472120285034,
				-1.002212405204773
			],
			"type":"VEC3"
		},
		{
			"bufferView":1,
			"componentType":5126,
			"count":72,
			"type":"VEC3"
		},
		{
			"bufferView":2,
			"componentType":5126,
			"count":72,
			"type":"VEC2"
		},
		{
			"bufferView":3,
			"componentType":5126,
			"count":72,
			"type":"VEC2"
		},
		{
			"bufferView":4,
			"componentType":5123,
			"count":108,
			"type":"SCALAR"
		},
		{
			"bufferView":5,
			"componentType":5126,
			"count":32,
			"max":[
				1,
				0,
				1
			],
			"min":[
				-1,
				-1,
				-1
			],
			"type":"VEC3"
		},
		{
			"bufferView":6,
			"componentType":5126,
			"count":32,
			"type":"VEC3"
		},
		{
			"bufferView":7,
			"componentType":5126,
			"count":32,
			"type":"VEC2"
		},
		{
			"bufferView":8,
			"componentType":5123,
			"count":60,
			"type":"SCALAR"
		},
		{
			"bufferView":9,
			"componentType":5126,
			"count":24,
			"max":[
				1,
				1,
				1
			],
			"min":[
				-1,
				-1,
				-1
			],
			"type":"VEC3"
		},
		{
			"bufferView":10,
			"componentType":5126,
			"count":24,
			"type":"VEC3"
		},
		{
			"bufferView":11,
			"componentType":5126,
			"count":24,
			"type":"VEC2"
		},
		{
			"bufferView":12,
			"componentType":5123,
			"count":36,
			"type":"SCALAR"
		},
		{
			"bufferView":13,
			"componentType":5126,
			"count":24,
			"max":[
				1,
				1,
				1
			],
			"min":[
				-1,
				-1,
				-1
			],
			"type":"VEC3"
		},
		{
			"bufferView":14,
			"componentType":5126,
			"count":24,
			"type":"VEC3"
		},
		{
			"bufferView":15,
			"componentType":5126,
			"count":24,
			"type":"VEC2"
		},
		{
			"bufferView":16,
			"componentType":5126,
			"count":108,
			"max":[
				1,
				1,
				1
			],
			"min":[
				-1,
				-1,
				-1
			],
			"type":"VEC3"
		},
		{
			"bufferView":17,
			"componentType":5126,
			"count":108,
			"type":"VEC3"
		},
		{
			"bufferView":18,
			"componentType":5126,
			"count":108,
			"type":"VEC2"
		},
		{
			"bufferView":19,
			"componentType":5123,
			"count":348,
			"type":"SCALAR"
		}
	],
	"bufferViews":[
		{
			"buffer":0,
			"byteLength":864,
			"byteOffset":0,
			"target":34962
		},
		{
			"buffer":0,
			"byteLength":864,
			"byteOffset":864,
			"target":34962
		},
		{
			"buffer":0,
			"byteLength":576,
			"byteOffset":1728,
			"target":34962
		},
		{
			"buffer":0,
			"byteLength":576,
			"byteOffset":2304,
			"target":34962
		},
		{
			"buffer":0,
			"byteLength":216,
			"byteOffset":2880,
			"target":34963
		},
		{
			"buffer":0,
			"byteLength":384,
			"byteOffset":3096,
			"target":34962
		},
		{
			"buffer":0,
			"byteLength":384,
			"byteOffset":3480,
			"target":34962
		},
		{
			"buffer":0,
			"byteLength":256,
			"byteOffset":3864,
			"target":34962
		},
		{
			"buffer":0,
			"byteLength":120,
			"byteOffset":4120,
			"target":34963
		},
		{
			"buffer":0,
			"byteLength":288,
			"byteOffset":4240,
			"target":34962
		},
		{
			"buffer":0,
			"byteLength":288,
			"byteOffset":4528,
			"target":34962
		},
		{
			"buffer":0,
			"byteLength":192,
			"byteOffset":4816,
			"target":34962
		},
		{
			"buffer":0,
			"byteLength":72,
			"byteOffset":5008,
			"target":34963
		},
		{
			"buffer":0,
			"byteLength":288,
			"byteOffset":5080,
			"target":34962
		},
		{
			"buffer":0,
			"byteLength":288,
			"byteOffset":5368,
			"target":34962
		},
		{
			"buffer":0,
			"byteLength":192,
			"byteOffset":5656,
			"target":34962
		},
		{
			"buffer":0,
			"byteLength":1296,
			"byteOffset":5848,
			"target":34962
		},
		{
			"buffer":0,
			"byteLength":1296,
			"byteOffset":7144,
			"target":34962
		},
		{
			"buffer":0,
			"byteLength":864,
			"byteOffset":8440,
			"target":34962
		},
		{
			"buffer":0,
			"byteLength":696,
			"byteOffset":9304,
			"target":34963
		}
	],
	"buffers":[
		{
			"byteLength":10000,
			"uri":"stage3.bin"
		}
	]
}
