{
	"asset":{
		"generator":"Khronos glTF Blender I/O v4.1.62",
		"version":"2.0"
	},
	"scene":0,
	"scenes":[
		{
			"name":"Scene",
			"nodes":[
				0,
				1,
				2,
				3,
				4
			]
		}
	],
	"nodes":[
		{
			"mesh":0,
			"name":"\u7acb\u65b9\u4f53",
			"translation":[
				-2,
				3,
				0.6521708965301514
			]
		},
		{
			"mesh":1,
			"name":"\u5e73\u9762",
			"translation":[
				-2,
				3,
				0
			]
		},
		{
			"mesh":2,
			"name":"\u5e73\u9762.001",
			"rotation":[
				0,
				0,
				0.729148268699646,
				0.6843557953834534
			],
			"translation":[
				-1.1112513542175293,
				3.586103677749634,
				0
			]
		},
		{
			"mesh":3,
			"name":"\u7acb\u65b9\u4f53.001",
			"rotation":[
				0,
				1,
				0,
				0
			],
			"scale":[
				-1,
				-0.05348539352416992,
				-1
			],
			"translation":[
				-2.0715365409851074,
				3.7476165294647217,
				0.6496278643608093
			]
		},
		{
			"mesh":4,
			"name":"\u7acb\u65b9\u4f53.002",
			"rotation":[
				1,
				0,
				0,
				0
			],
			"scale":[
				-0.12297296524047852,
				-1,
				-1
			],
			"translation":[
				-2.78959059715271,
				3.139376640319824,
				0
			]
		}
	],
	"materials":[
		{
			"doubleSided":true,
			"name":"\u30de\u30c6\u30ea\u30a2\u30eb.001",
			"pbrMetallicRoughness":{
				"baseColorTexture":{
					"index":0
				},
				"metallicFactor":0,
				"roughnessFactor":0.5
			}
		},
		{
			"doubleSided":true,
			"name":"\u30de\u30c6\u30ea\u30a2\u30eb.010",
			"pbrMetallicRoughness":{
				"baseColorTexture":{
					"index":1
				},
				"metallicFactor":0,
				"roughnessFactor":0.5
			}
		},
		{
			"doubleSided":true,
			"name":"\u30de\u30c6\u30ea\u30a2\u30eb.008",
			"pbrMetallicRoughness":{
				"baseColorTexture":{
					"index":2
				},
				"metallicFactor":0,
				"roughnessFactor":0.5
			}
		}
	],
	"meshes":[
		{
			"name":"\u7acb\u65b9\u4f53",
			"primitives":[
				{
					"attributes":{
						"POSITION":0,
						"NORMAL":1,
						"TEXCOORD_0":2
					},
					"indices":3,
					"material":0
				},
				{
					"attributes":{
						"POSITION":4,
						"NORMAL":5,
						"TEXCOORD_0":6
					},
					"indices":7,
					"material":1
				}
			]
		},
		{
			"name":"\u5e73\u9762",
			"primitives":[
				{
					"attributes":{
						"POSITION":8,
						"NORMAL":9,
						"TEXCOORD_0":10
					},
					"indices":11,
					"material":0
				}
			]
		},
		{
			"name":"\u5e73\u9762.001",
			"primitives":[
				{
					"attributes":{
						"POSITION":12,
						"NORMAL":13,
						"TEXCOORD_0":14
					},
					"indices":11,
					"material":2
				}
			]
		},
		{
			"name":"\u7acb\u65b9\u4f53.001",
			"primitives":[
				{
					"attributes":{
						"POSITION":15,
						"NORMAL":16,
						"TEXCOORD_0":17
					},
					"indices":18,
					"material":0
				}
			]
		},
		{
			"name":"\u7acb\u65b9\u4f53.003",
			"primitives":[
				{
					"attributes":{
						"POSITION":19,
						"NORMAL":20,
						"TEXCOORD_0":21
					},
					"indices":18,
					"material":0
				}
			]
		}
	],
	"textures":[
		{
			"sampler":0,
			"source":0
		},
		{
			"sampler":0,
			"source":1
		},
		{
			"sampler":0,
			"source":0
		}
	],
	"images":[
		{
			"mimeType":"image/png",
			"name":"sprite_0",
			"uri":"sprite_0.png"
		},
		{
			"mimeType":"image/png",
			"name":"sprite_1",
			"uri":"sprite_1.png"
		}
	],
	"accessors":[
		{
			"bufferView":0,
			"componentType":5126,
			"count":152,
			"max":[
				7,
				1.5999999046325684,
				4.3478288650512695
			],
			"min":[
				-3,
				-3,
				-5.6521711349487305
			],
			"type":"VEC3"
		},
		{
			"bufferView":1,
			"componentType":5126,
			"count":152,
			"type":"VEC3"
		},
		{
			"bufferView":2,
			"componentType":5126,
			"count":152,
			"type":"VEC2"
		},
		{
			"bufferView":3,
			"componentType":5123,
			"count":252,
			"type":"SCALAR"
		},
		{
			"bufferView":4,
			"componentType":5126,
			"count":5,
			"max":[
				-1.1212379932403564,
				1.0352733135223389,
				3.0720837116241455
			],
			"min":[
				-1.1212379932403564,
				-1.0018150806427002,
				0.9554963111877441
			],
			"type":"VEC3"
		},
		{
			"bufferView":5,
			"componentType":5126,
			"count":5,
			"type":"VEC3"
		},
		{
			"bufferView":6,
			"componentType":5126,
			"count":5,
			"type":"VEC2"
		},
		{
			"bufferView":7,
			"componentType":5123,
			"count":9,
			"type":"SCALAR"
		},
		{
			"bufferView":8,
			"componentType":5126,
			"count":4,
			"max":[
				0.9315842390060425,
				0,
				1.6240274906158447
			],
			"min":[
				-1.117784023284912,
				-0.9978004693984985,
				-1
			],
			"type":"VEC3"
		},
		{
			"bufferView":9,
			"componentType":5126,
			"count":4,
			"type":"VEC3"
		},
		{
			"bufferView":10,
			"componentType":5126,
			"count":4,
			"type":"VEC2"
		},
		{
			"bufferView":11,
			"componentType":5123,
			"count":6,
			"type":"SCALAR"
		},
		{
			"bufferView":12,
			"componentType":5126,
			"count":4,
			"max":[
				1.0095957517623901,
				0.20300140976905823,
				1.641999363899231
			],
			"min":[
				-1.5808310508728027,
				-0.010843208990991116,
				-1
			],
			"type":"VEC3"
		},
		{
			"bufferView":13,
			"componentType":5126,
			"count":4,
			"type":"VEC3"
		},
		{
			"bufferView":14,
			"componentType":5126,
			"count":4,
			"type":"VEC2"
		},
		{
			"bufferView":15,
			"componentType":5126,
			"count":24,
			"max":[
				0.9015994071960449,
				1,
				1
			],
			"min":[
				-1.0567978620529175,
				-15.720705032348633,
				-1.6373672485351562
			],
			"type":"VEC3"
		},
		{
			"bufferView":16,
			"componentType":5126,
			"count":24,
			"type":"VEC3"
		},
		{
			"bufferView":17,
			"componentType":5126,
			"count":24,
			"type":"VEC2"
		},
		{
			"bufferView":18,
			"componentType":5123,
			"count":36,
			"type":"SCALAR"
		},
		{
			"bufferView":19,
			"componentType":5126,
			"count":24,
			"max":[
				4.270419120788574,
				1.441702127456665,
				1.645254373550415
			],
			"min":[
				2.270419120788574,
				-1.1447510719299316,
				-0.9829033613204956
			],
			"type":"VEC3"
		},
		{
			"bufferView":20,
			"componentType":5126,
			"count":24,
			"type":"VEC3"
		},
		{
			"bufferView":21,
			"componentType":5126,
			"count":24,
			"type":"VEC2"
		}
	],
	"bufferViews":[
		{
			"buffer":0,
			"byteLength":1824,
			"byteOffset":0,
			"target":34962
		},
		{
			"buffer":0,
			"byteLength":1824,
			"byteOffset":1824,
			"target":34962
		},
		{
			"buffer":0,
			"byteLength":1216,
			"byteOffset":3648,
			"target":34962
		},
		{
			"buffer":0,
			"byteLength":504,
			"byteOffset":4864,
			"target":34963
		},
		{
			"buffer":0,
			"byteLength":60,
			"byteOffset":5368,
			"target":34962
		},
		{
			"buffer":0,
			"byteLength":60,
			"byteOffset":5428,
			"target":34962
		},
		{
			"buffer":0,
			"byteLength":40,
			"byteOffset":5488,
			"target":34962
		},
		{
			"buffer":0,
			"byteLength":18,
			"byteOffset":5528,
			"target":34963
		},
		{
			"buffer":0,
			"byteLength":48,
			"byteOffset":5548,
			"target":34962
		},
		{
			"buffer":0,
			"byteLength":48,
			"byteOffset":5596,
			"target":34962
		},
		{
			"buffer":0,
			"byteLength":32,
			"byteOffset":5644,
			"target":34962
		},
		{
			"buffer":0,
			"byteLength":12,
			"byteOffset":5676,
			"target":34963
		},
		{
			"buffer":0,
			"byteLength":48,
			"byteOffset":5688,
			"target":34962
		},
		{
			"buffer":0,
			"byteLength":48,
			"byteOffset":5736,
			"target":34962
		},
		{
			"buffer":0,
			"byteLength":32,
			"byteOffset":5784,
			"target":34962
		},
		{
			"buffer":0,
			"byteLength":288,
			"byteOffset":5816,
			"target":34962
		},
		{
			"buffer":0,
			"byteLength":288,
			"byteOffset":6104,
			"target":34962
		},
		{
			"buffer":0,
			"byteLength":192,
			"byteOffset":6392,
			"target":34962
		},
		{
			"buffer":0,
			"byteLength":72,
			"byteOffset":6584,
			"target":34963
		},
		{
			"buffer":0,
			"byteLength":288,
			"byteOffset":6656,
			"target":34962
		},
		{
			"buffer":0,
			"byteLength":288,
			"byteOffset":6944,
			"target":34962
		},
		{
			"buffer":0,
			"byteLength":192,
			"byteOffset":7232,
			"target":34962
		}
	],
	"samplers":[
		{
			"magFilter":9729,
			"minFilter":9987
		}
	],
	"buffers":[
		{
			"byteLength":7424,
			"uri":"stage7.bin"
		}
	]
}
