{
	"asset":{
		"generator":"Khronos glTF Blender I/O v4.1.62",
		"version":"2.0"
	},
	"scene":0,
	"scenes":[
		{
			"name":"Scene",
			"nodes":[
				0,
				1,
				2,
				3,
				4,
				5
			]
		}
	],
	"nodes":[
		{
			"mesh":0,
			"name":"river.001",
			"rotation":[
				0.70710688829422,
				0,
				0,
				0.7071066498756409
			],
			"scale":[
				0.5,
				0.20000001788139343,
				1
			],
			"translation":[
				-8.658269882202148,
				3.872863531112671,
				-1.1985044479370117
			]
		},
		{
			"mesh":1,
			"name":"river",
			"scale":[
				0.5,
				0.20000000298023224,
				1
			],
			"translation":[
				-8.658269882202148,
				4.667753219604492,
				-0.016825348138809204
			]
		},
		{
			"mesh":2,
			"name":"river.002",
			"scale":[
				0.5,
				0.20000000298023224,
				1
			],
			"translation":[
				-8.658269882202148,
				3.1532435417175293,
				-2.3521313667297363
			]
		},
		{
			"mesh":3,
			"name":"COL",
			"scale":[
				0.6000000238418579,
				0.5,
				1
			],
			"translation":[
				-8.750444412231445,
				5.060434341430664,
				0.028050512075424194
			]
		},
		{
			"mesh":4,
			"name":"COL.001",
			"rotation":[
				0.70710688829422,
				0,
				0,
				0.7071066498756409
			],
			"scale":[
				0.6000000238418579,
				0.5,
				1
			],
			"translation":[
				-8.750444412231445,
				4.565420150756836,
				-1.4825165271759033
			]
		},
		{
			"mesh":5,
			"name":"COL.002",
			"scale":[
				0.6000000238418579,
				0.5,
				2.5
			],
			"translation":[
				-8.70230484008789,
				3.2391865253448486,
				-4.521859169006348
			]
		}
	],
	"materials":[
		{
			"doubleSided":true,
			"name":"\u30de\u30c6\u30ea\u30a2\u30eb.002",
			"pbrMetallicRoughness":{
				"baseColorFactor":[
					0,
					0.02133706584572792,
					0.804146945476532,
					1
				],
				"metallicFactor":0,
				"roughnessFactor":0.5
			}
		},
		{
			"doubleSided":true,
			"name":"\u30de\u30c6\u30ea\u30a2\u30eb.004",
			"pbrMetallicRoughness":{
				"baseColorFactor":[
					0,
					0.02133706584572792,
					0.804146945476532,
					1
				],
				"metallicFactor":0,
				"roughnessFactor":0.5
			}
		},
		{
			"doubleSided":true,
			"name":"\u30de\u30c6\u30ea\u30a2\u30eb.005",
			"pbrMetallicRoughness":{
				"baseColorFactor":[
					0,
					0.02133706584572792,
					0.804146945476532,
					1
				],
				"metallicFactor":0,
				"roughnessFactor":0.5
			}
		}
	],
	"meshes":[
		{
			"name":"\u7acb\u65b9\u4f53.005",
			"primitives":[
				{
					"attributes":{
						"POSITION":0,
						"NORMAL":1,
						"TEXCOORD_0":2
					},
					"indices":3,
					"material":0
				}
			]
		},
		{
			"name":"\u7acb\u65b9\u4f53.008",
			"primitives":[
				{
					"attributes":{
						"POSITION":4,
						"NORMAL":5,
						"TEXCOORD_0":6
					},
					"indices":3,
					"material":1
				}
			]
		},
		{
			"name":"\u7acb\u65b9\u4f53.009",
			"primitives":[
				{
					"attributes":{
						"POSITION":7,
						"NORMAL":8,
						"TEXCOORD_0":9
					},
					"indices":3,
					"material":2
				}
			]
		},
		{
			"name":"\u7acb\u65b9\u4f53.010",
			"primitives":[
				{
					"attributes":{
						"POSITION":10,
						"NORMAL":11,
						"TEXCOORD_0":12
					},
					"indices":13
				}
			]
		},
		{
			"name":"\u7acb\u65b9\u4f53.014",
			"primitives":[
				{
					"attributes":{
						"POSITION":14,
						"NORMAL":15,
						"TEXCOORD_0":16
					},
					"indices":13
				}
			]
		},
		{
			"name":"\u7acb\u65b9\u4f53.001",
			"primitives":[
				{
					"attributes":{
						"POSITION":17,
						"NORMAL":18,
						"TEXCOORD_0":19
					},
					"indices":13
				}
			]
		}
	],
	"accessors":[
		{
			"bufferView":0,
			"componentType":5126,
			"count":14,
			"max":[
				1,
				1,
				1
			],
			"min":[
				-1,
				-1,
				-1
			],
			"type":"VEC3"
		},
		{
			"bufferView":1,
			"componentType":5126,
			"count":14,
			"type":"VEC3"
		},
		{
			"bufferView":2,
			"componentType":5126,
			"count":14,
			"type":"VEC2"
		},
		{
			"bufferView":3,
			"componentType":5123,
			"count":36,
			"type":"SCALAR"
		},
		{
			"bufferView":4,
			"componentType":5126,
			"count":14,
			"max":[
				1,
				1,
				1
			],
			"min":[
				-1,
				-1,
				-1
			],
			"type":"VEC3"
		},
		{
			"bufferView":5,
			"componentType":5126,
			"count":14,
			"type":"VEC3"
		},
		{
			"bufferView":6,
			"componentType":5126,
			"count":14,
			"type":"VEC2"
		},
		{
			"bufferView":7,
			"componentType":5126,
			"count":14,
			"max":[
				1,
				1,
				1
			],
			"min":[
				-1,
				-1,
				-4.658430099487305
			],
			"type":"VEC3"
		},
		{
			"bufferView":8,
			"componentType":5126,
			"count":14,
			"type":"VEC3"
		},
		{
			"bufferView":9,
			"componentType":5126,
			"count":14,
			"type":"VEC2"
		},
		{
			"bufferView":10,
			"componentType":5126,
			"count":24,
			"max":[
				1,
				1,
				1
			],
			"min":[
				-0.6835751533508301,
				-1,
				-1
			],
			"type":"VEC3"
		},
		{
			"bufferView":11,
			"componentType":5126,
			"count":24,
			"type":"VEC3"
		},
		{
			"bufferView":12,
			"componentType":5126,
			"count":24,
			"type":"VEC2"
		},
		{
			"bufferView":13,
			"componentType":5123,
			"count":36,
			"type":"SCALAR"
		},
		{
			"bufferView":14,
			"componentType":5126,
			"count":24,
			"max":[
				1,
				1.0000001192092896,
				1.8743114471435547
			],
			"min":[
				-0.686190128326416,
				-1,
				-1
			],
			"type":"VEC3"
		},
		{
			"bufferView":15,
			"componentType":5126,
			"count":24,
			"type":"VEC3"
		},
		{
			"bufferView":16,
			"componentType":5126,
			"count":24,
			"type":"VEC2"
		},
		{
			"bufferView":17,
			"componentType":5126,
			"count":24,
			"max":[
				0.9272518157958984,
				4.616062164306641,
				1.0120285749435425
			],
			"min":[
				-0.8288819789886475,
				-1,
				-1
			],
			"type":"VEC3"
		},
		{
			"bufferView":18,
			"componentType":5126,
			"count":24,
			"type":"VEC3"
		},
		{
			"bufferView":19,
			"componentType":5126,
			"count":24,
			"type":"VEC2"
		}
	],
	"bufferViews":[
		{
			"buffer":0,
			"byteLength":168,
			"byteOffset":0,
			"target":34962
		},
		{
			"buffer":0,
			"byteLength":168,
			"byteOffset":168,
			"target":34962
		},
		{
			"buffer":0,
			"byteLength":112,
			"byteOffset":336,
			"target":34962
		},
		{
			"buffer":0,
			"byteLength":72,
			"byteOffset":448,
			"target":34963
		},
		{
			"buffer":0,
			"byteLength":168,
			"byteOffset":520,
			"target":34962
		},
		{
			"buffer":0,
			"byteLength":168,
			"byteOffset":688,
			"target":34962
		},
		{
			"buffer":0,
			"byteLength":112,
			"byteOffset":856,
			"target":34962
		},
		{
			"buffer":0,
			"byteLength":168,
			"byteOffset":968,
			"target":34962
		},
		{
			"buffer":0,
			"byteLength":168,
			"byteOffset":1136,
			"target":34962
		},
		{
			"buffer":0,
			"byteLength":112,
			"byteOffset":1304,
			"target":34962
		},
		{
			"buffer":0,
			"byteLength":288,
			"byteOffset":1416,
			"target":34962
		},
		{
			"buffer":0,
			"byteLength":288,
			"byteOffset":1704,
			"target":34962
		},
		{
			"buffer":0,
			"byteLength":192,
			"byteOffset":1992,
			"target":34962
		},
		{
			"buffer":0,
			"byteLength":72,
			"byteOffset":2184,
			"target":34963
		},
		{
			"buffer":0,
			"byteLength":288,
			"byteOffset":2256,
			"target":34962
		},
		{
			"buffer":0,
			"byteLength":288,
			"byteOffset":2544,
			"target":34962
		},
		{
			"buffer":0,
			"byteLength":192,
			"byteOffset":2832,
			"target":34962
		},
		{
			"buffer":0,
			"byteLength":288,
			"byteOffset":3024,
			"target":34962
		},
		{
			"buffer":0,
			"byteLength":288,
			"byteOffset":3312,
			"target":34962
		},
		{
			"buffer":0,
			"byteLength":192,
			"byteOffset":3600,
			"target":34962
		}
	],
	"buffers":[
		{
			"byteLength":3792,
			"uri":"river.bin"
		}
	]
}
