{
	"asset":{
		"generator":"Khronos glTF Blender I/O v4.1.62",
		"version":"2.0"
	},
	"scene":0,
	"scenes":[
		{
			"name":"Scene",
			"nodes":[
				0,
				1,
				2,
				3,
				4
			]
		}
	],
	"nodes":[
		{
			"mesh":0,
			"name":"Cylinder.004",
			"translation":[
				0,
				5.279968738555908,
				-14
			]
		},
		{
			"mesh":1,
			"name":"Cylinder.003",
			"translation":[
				2,
				5.279968738555908,
				-8
			]
		},
		{
			"mesh":2,
			"name":"Cylinder.002",
			"translation":[
				2,
				3.279968500137329,
				-14
			]
		},
		{
			"mesh":3,
			"name":"Cylinder.001",
			"translation":[
				-4.068302631378174,
				5.279968738555908,
				-12
			]
		},
		{
			"mesh":4,
			"name":"Cylinder",
			"translation":[
				-4,
				3.279968500137329,
				-14
			]
		}
	],
	"materials":[
		{
			"doubleSided":true,
			"name":"Material.240",
			"pbrMetallicRoughness":{
				"baseColorTexture":{
					"index":0
				},
				"metallicFactor":0,
				"roughnessFactor":0.5
			}
		},
		{
			"doubleSided":true,
			"name":"Material.241",
			"pbrMetallicRoughness":{
				"baseColorTexture":{
					"index":1
				},
				"metallicFactor":0,
				"roughnessFactor":0.5
			}
		},
		{
			"doubleSided":true,
			"name":"Material.242",
			"pbrMetallicRoughness":{
				"baseColorTexture":{
					"index":2
				},
				"metallicFactor":0,
				"roughnessFactor":0.5
			}
		},
		{
			"doubleSided":true,
			"name":"Material.243",
			"pbrMetallicRoughness":{
				"baseColorTexture":{
					"index":3
				},
				"metallicFactor":0,
				"roughnessFactor":0.5
			}
		},
		{
			"doubleSided":true,
			"name":"Material.244",
			"pbrMetallicRoughness":{
				"baseColorTexture":{
					"index":4
				},
				"metallicFactor":0,
				"roughnessFactor":0.5
			}
		}
	],
	"meshes":[
		{
			"name":"Cylinder.005",
			"primitives":[
				{
					"attributes":{
						"POSITION":0,
						"NORMAL":1,
						"TEXCOORD_0":2
					},
					"indices":3,
					"material":0
				}
			]
		},
		{
			"name":"Cylinder.006",
			"primitives":[
				{
					"attributes":{
						"POSITION":4,
						"NORMAL":5,
						"TEXCOORD_0":6
					},
					"indices":3,
					"material":1
				}
			]
		},
		{
			"name":"Cylinder.007",
			"primitives":[
				{
					"attributes":{
						"POSITION":7,
						"NORMAL":8,
						"TEXCOORD_0":9
					},
					"indices":3,
					"material":2
				}
			]
		},
		{
			"name":"Cylinder.008",
			"primitives":[
				{
					"attributes":{
						"POSITION":10,
						"NORMAL":11,
						"TEXCOORD_0":12
					},
					"indices":3,
					"material":3
				}
			]
		},
		{
			"name":"Cylinder.009",
			"primitives":[
				{
					"attributes":{
						"POSITION":13,
						"NORMAL":14,
						"TEXCOORD_0":15
					},
					"indices":3,
					"material":4
				}
			]
		}
	],
	"textures":[
		{
			"sampler":0,
			"source":0
		},
		{
			"sampler":0,
			"source":0
		},
		{
			"sampler":0,
			"source":0
		},
		{
			"sampler":0,
			"source":0
		},
		{
			"sampler":0,
			"source":0
		}
	],
	"images":[
		{
			"mimeType":"image/png",
			"name":"waypoint_circle_001_d",
			"uri":"waypoint_circle_001_d.png"
		}
	],
	"accessors":[
		{
			"bufferView":0,
			"componentType":5126,
			"count":160,
			"max":[
				1,
				-0.25,
				1
			],
			"min":[
				-1,
				-0.5,
				-1
			],
			"type":"VEC3"
		},
		{
			"bufferView":1,
			"componentType":5126,
			"count":160,
			"type":"VEC3"
		},
		{
			"bufferView":2,
			"componentType":5126,
			"count":160,
			"type":"VEC2"
		},
		{
			"bufferView":3,
			"componentType":5123,
			"count":282,
			"type":"SCALAR"
		},
		{
			"bufferView":4,
			"componentType":5126,
			"count":160,
			"max":[
				1,
				-0.25,
				1
			],
			"min":[
				-1,
				-0.5,
				-1
			],
			"type":"VEC3"
		},
		{
			"bufferView":5,
			"componentType":5126,
			"count":160,
			"type":"VEC3"
		},
		{
			"bufferView":6,
			"componentType":5126,
			"count":160,
			"type":"VEC2"
		},
		{
			"bufferView":7,
			"componentType":5126,
			"count":160,
			"max":[
				1,
				-0.25,
				1
			],
			"min":[
				-1,
				-0.5,
				-1
			],
			"type":"VEC3"
		},
		{
			"bufferView":8,
			"componentType":5126,
			"count":160,
			"type":"VEC3"
		},
		{
			"bufferView":9,
			"componentType":5126,
			"count":160,
			"type":"VEC2"
		},
		{
			"bufferView":10,
			"componentType":5126,
			"count":160,
			"max":[
				1,
				-0.25,
				1
			],
			"min":[
				-1,
				-0.5,
				-1
			],
			"type":"VEC3"
		},
		{
			"bufferView":11,
			"componentType":5126,
			"count":160,
			"type":"VEC3"
		},
		{
			"bufferView":12,
			"componentType":5126,
			"count":160,
			"type":"VEC2"
		},
		{
			"bufferView":13,
			"componentType":5126,
			"count":160,
			"max":[
				1,
				-0.25,
				1
			],
			"min":[
				-1,
				-0.5,
				-1
			],
			"type":"VEC3"
		},
		{
			"bufferView":14,
			"componentType":5126,
			"count":160,
			"type":"VEC3"
		},
		{
			"bufferView":15,
			"componentType":5126,
			"count":160,
			"type":"VEC2"
		}
	],
	"bufferViews":[
		{
			"buffer":0,
			"byteLength":1920,
			"byteOffset":0,
			"target":34962
		},
		{
			"buffer":0,
			"byteLength":1920,
			"byteOffset":1920,
			"target":34962
		},
		{
			"buffer":0,
			"byteLength":1280,
			"byteOffset":3840,
			"target":34962
		},
		{
			"buffer":0,
			"byteLength":564,
			"byteOffset":5120,
			"target":34963
		},
		{
			"buffer":0,
			"byteLength":1920,
			"byteOffset":5684,
			"target":34962
		},
		{
			"buffer":0,
			"byteLength":1920,
			"byteOffset":7604,
			"target":34962
		},
		{
			"buffer":0,
			"byteLength":1280,
			"byteOffset":9524,
			"target":34962
		},
		{
			"buffer":0,
			"byteLength":1920,
			"byteOffset":10804,
			"target":34962
		},
		{
			"buffer":0,
			"byteLength":1920,
			"byteOffset":12724,
			"target":34962
		},
		{
			"buffer":0,
			"byteLength":1280,
			"byteOffset":14644,
			"target":34962
		},
		{
			"buffer":0,
			"byteLength":1920,
			"byteOffset":15924,
			"target":34962
		},
		{
			"buffer":0,
			"byteLength":1920,
			"byteOffset":17844,
			"target":34962
		},
		{
			"buffer":0,
			"byteLength":1280,
			"byteOffset":19764,
			"target":34962
		},
		{
			"buffer":0,
			"byteLength":1920,
			"byteOffset":21044,
			"target":34962
		},
		{
			"buffer":0,
			"byteLength":1920,
			"byteOffset":22964,
			"target":34962
		},
		{
			"buffer":0,
			"byteLength":1280,
			"byteOffset":24884,
			"target":34962
		}
	],
	"samplers":[
		{
			"magFilter":9729,
			"minFilter":9987
		}
	],
	"buffers":[
		{
			"byteLength":26164,
			"uri":"warp.bin"
		}
	]
}
