{
	"asset":{
		"generator":"Khronos glTF Blender I/O v4.1.62",
		"version":"2.0"
	},
	"scene":0,
	"scenes":[
		{
			"name":"Scene",
			"nodes":[
				0,
				1,
				2,
				3,
				4,
				5
			]
		}
	],
	"nodes":[
		{
			"mesh":0,
			"name":"\u67280.35",
			"rotation":[
				0,
				0.9936268329620361,
				0,
				0.11271987110376358
			],
			"scale":[
				0.3499999940395355,
				0.3499999940395355,
				0.3499999940395355
			],
			"translation":[
				4,
				5.172482490539551,
				-4
			]
		},
		{
			"mesh":1,
			"name":"\u67280.5",
			"rotation":[
				0,
				0.9936268925666809,
				0,
				0.11271987855434418
			],
			"scale":[
				0.5,
				0.5,
				0.5
			],
			"translation":[
				2,
				7.699999809265137,
				0
			]
		},
		{
			"mesh":2,
			"name":"\u67280.28",
			"rotation":[
				0,
				0.9936268329620361,
				0,
				0.11271987855434418
			],
			"scale":[
				0.2799999713897705,
				0.2800000011920929,
				0.2799999713897705
			],
			"translation":[
				2,
				4.727273464202881,
				-1.6850630044937134
			]
		},
		{
			"mesh":3,
			"name":"COL",
			"scale":[
				1,
				2,
				1
			],
			"translation":[
				2,
				6.556692600250244,
				0
			]
		},
		{
			"mesh":4,
			"name":"COL.001",
			"scale":[
				0.5,
				1,
				0.5
			],
			"translation":[
				2,
				3.9657397270202637,
				-1.7168362140655518
			]
		},
		{
			"mesh":5,
			"name":"COL.002",
			"scale":[
				0.699999988079071,
				1.2999999523162842,
				0.699999988079071
			],
			"translation":[
				4,
				4.273078918457031,
				-4
			]
		}
	],
	"materials":[
		{
			"doubleSided":true,
			"name":"Material.001",
			"pbrMetallicRoughness":{
				"baseColorFactor":[
					0.0888376384973526,
					0.35884055495262146,
					0.020890546962618828,
					1
				],
				"metallicFactor":0
			}
		},
		{
			"doubleSided":true,
			"name":"Material.007",
			"pbrMetallicRoughness":{
				"baseColorFactor":[
					0.20791654288768768,
					0.08606641739606857,
					0.022083455696702003,
					1
				],
				"metallicFactor":0
			}
		},
		{
			"doubleSided":true,
			"name":"Material.009",
			"pbrMetallicRoughness":{
				"baseColorFactor":[
					0.07773373275995255,
					0.3108135163784027,
					0.018636826425790787,
					1
				],
				"metallicFactor":0
			}
		},
		{
			"doubleSided":true,
			"name":"Material.010",
			"pbrMetallicRoughness":{
				"baseColorFactor":[
					0.18895119428634644,
					0.8000000715255737,
					0.04063516482710838,
					1
				],
				"metallicFactor":0
			}
		},
		{
			"doubleSided":true,
			"name":"Material.011",
			"pbrMetallicRoughness":{
				"baseColorFactor":[
					0.1071401908993721,
					0.4385441839694977,
					0.02455742098391056,
					1
				],
				"metallicFactor":0
			}
		},
		{
			"doubleSided":true,
			"name":"Material.012",
			"pbrMetallicRoughness":{
				"baseColorFactor":[
					0.18895119428634644,
					0.8000000715255737,
					0.04063516482710838,
					1
				],
				"metallicFactor":0
			}
		},
		{
			"doubleSided":true,
			"name":"Material.013",
			"pbrMetallicRoughness":{
				"baseColorFactor":[
					0.0888376384973526,
					0.35884055495262146,
					0.020890546962618828,
					1
				],
				"metallicFactor":0
			}
		},
		{
			"doubleSided":true,
			"name":"Material.014",
			"pbrMetallicRoughness":{
				"baseColorFactor":[
					0.20791654288768768,
					0.08606641739606857,
					0.022083455696702003,
					1
				],
				"metallicFactor":0
			}
		},
		{
			"doubleSided":true,
			"name":"Material.015",
			"pbrMetallicRoughness":{
				"baseColorFactor":[
					0.07773373275995255,
					0.3108135163784027,
					0.018636826425790787,
					1
				],
				"metallicFactor":0
			}
		},
		{
			"doubleSided":true,
			"name":"Material.016",
			"pbrMetallicRoughness":{
				"baseColorFactor":[
					0.18895119428634644,
					0.8000000715255737,
					0.04063516482710838,
					1
				],
				"metallicFactor":0
			}
		},
		{
			"doubleSided":true,
			"name":"Material.017",
			"pbrMetallicRoughness":{
				"baseColorFactor":[
					0.1071401908993721,
					0.4385441839694977,
					0.02455742098391056,
					1
				],
				"metallicFactor":0
			}
		},
		{
			"doubleSided":true,
			"name":"Material.018",
			"pbrMetallicRoughness":{
				"baseColorFactor":[
					0.18895119428634644,
					0.8000000715255737,
					0.04063516482710838,
					1
				],
				"metallicFactor":0
			}
		},
		{
			"doubleSided":true,
			"name":"Material.019",
			"pbrMetallicRoughness":{
				"baseColorFactor":[
					0.0888376384973526,
					0.35884055495262146,
					0.020890546962618828,
					1
				],
				"metallicFactor":0
			}
		},
		{
			"doubleSided":true,
			"name":"Material.020",
			"pbrMetallicRoughness":{
				"baseColorFactor":[
					0.20791654288768768,
					0.08606641739606857,
					0.022083455696702003,
					1
				],
				"metallicFactor":0
			}
		},
		{
			"doubleSided":true,
			"name":"Material.021",
			"pbrMetallicRoughness":{
				"baseColorFactor":[
					0.07773373275995255,
					0.3108135163784027,
					0.018636826425790787,
					1
				],
				"metallicFactor":0
			}
		},
		{
			"doubleSided":true,
			"name":"Material.022",
			"pbrMetallicRoughness":{
				"baseColorFactor":[
					0.18895119428634644,
					0.8000000715255737,
					0.04063516482710838,
					1
				],
				"metallicFactor":0
			}
		},
		{
			"doubleSided":true,
			"name":"Material.023",
			"pbrMetallicRoughness":{
				"baseColorFactor":[
					0.1071401908993721,
					0.4385441839694977,
					0.02455742098391056,
					1
				],
				"metallicFactor":0
			}
		},
		{
			"doubleSided":true,
			"name":"Material.024",
			"pbrMetallicRoughness":{
				"baseColorFactor":[
					0.18895119428634644,
					0.8000000715255737,
					0.04063516482710838,
					1
				],
				"metallicFactor":0
			}
		}
	],
	"meshes":[
		{
			"name":"Cone.001",
			"primitives":[
				{
					"attributes":{
						"POSITION":0,
						"NORMAL":1,
						"TEXCOORD_0":2
					},
					"indices":3,
					"material":0
				},
				{
					"attributes":{
						"POSITION":4,
						"NORMAL":5,
						"TEXCOORD_0":6
					},
					"indices":7,
					"material":1
				},
				{
					"attributes":{
						"POSITION":8,
						"NORMAL":9,
						"TEXCOORD_0":10
					},
					"indices":11,
					"material":2
				},
				{
					"attributes":{
						"POSITION":12,
						"NORMAL":13,
						"TEXCOORD_0":14
					},
					"indices":15,
					"material":3
				},
				{
					"attributes":{
						"POSITION":16,
						"NORMAL":17,
						"TEXCOORD_0":18
					},
					"indices":19,
					"material":4
				},
				{
					"attributes":{
						"POSITION":20,
						"NORMAL":21,
						"TEXCOORD_0":22
					},
					"indices":23,
					"material":5
				}
			]
		},
		{
			"name":"Cone.002",
			"primitives":[
				{
					"attributes":{
						"POSITION":24,
						"NORMAL":25,
						"TEXCOORD_0":26
					},
					"indices":3,
					"material":6
				},
				{
					"attributes":{
						"POSITION":27,
						"NORMAL":28,
						"TEXCOORD_0":29
					},
					"indices":7,
					"material":7
				},
				{
					"attributes":{
						"POSITION":30,
						"NORMAL":31,
						"TEXCOORD_0":32
					},
					"indices":11,
					"material":8
				},
				{
					"attributes":{
						"POSITION":33,
						"NORMAL":34,
						"TEXCOORD_0":35
					},
					"indices":15,
					"material":9
				},
				{
					"attributes":{
						"POSITION":36,
						"NORMAL":37,
						"TEXCOORD_0":38
					},
					"indices":19,
					"material":10
				},
				{
					"attributes":{
						"POSITION":39,
						"NORMAL":40,
						"TEXCOORD_0":41
					},
					"indices":23,
					"material":11
				}
			]
		},
		{
			"name":"Cone.003",
			"primitives":[
				{
					"attributes":{
						"POSITION":42,
						"NORMAL":43,
						"TEXCOORD_0":44
					},
					"indices":3,
					"material":12
				},
				{
					"attributes":{
						"POSITION":45,
						"NORMAL":46,
						"TEXCOORD_0":47
					},
					"indices":7,
					"material":13
				},
				{
					"attributes":{
						"POSITION":48,
						"NORMAL":49,
						"TEXCOORD_0":50
					},
					"indices":11,
					"material":14
				},
				{
					"attributes":{
						"POSITION":51,
						"NORMAL":52,
						"TEXCOORD_0":53
					},
					"indices":15,
					"material":15
				},
				{
					"attributes":{
						"POSITION":54,
						"NORMAL":55,
						"TEXCOORD_0":56
					},
					"indices":19,
					"material":16
				},
				{
					"attributes":{
						"POSITION":57,
						"NORMAL":58,
						"TEXCOORD_0":59
					},
					"indices":23,
					"material":17
				}
			]
		},
		{
			"name":"\u7acb\u65b9\u4f53.002",
			"primitives":[
				{
					"attributes":{
						"POSITION":60,
						"NORMAL":61,
						"TEXCOORD_0":62
					},
					"indices":63
				}
			]
		},
		{
			"name":"\u7acb\u65b9\u4f53.004",
			"primitives":[
				{
					"attributes":{
						"POSITION":64,
						"NORMAL":65,
						"TEXCOORD_0":66
					},
					"indices":63
				}
			]
		},
		{
			"name":"\u7acb\u65b9\u4f53.005",
			"primitives":[
				{
					"attributes":{
						"POSITION":67,
						"NORMAL":68,
						"TEXCOORD_0":69
					},
					"indices":63
				}
			]
		}
	],
	"accessors":[
		{
			"bufferView":0,
			"componentType":5126,
			"count":40,
			"max":[
				1.223624587059021,
				0.16494762897491455,
				1.2865949869155884
			],
			"min":[
				-1.2236244678497314,
				-1.2126405239105225,
				-1.2865949869155884
			],
			"type":"VEC3"
		},
		{
			"bufferView":1,
			"componentType":5126,
			"count":40,
			"type":"VEC3"
		},
		{
			"bufferView":2,
			"componentType":5126,
			"count":40,
			"type":"VEC2"
		},
		{
			"bufferView":3,
			"componentType":5123,
			"count":54,
			"type":"SCALAR"
		},
		{
			"bufferView":4,
			"componentType":5126,
			"count":200,
			"max":[
				1.0188822746276855,
				-4.319031715393066,
				1.04141366481781
			],
			"min":[
				-1.0188825130462646,
				-6.285055160522461,
				-1.0032172203063965
			],
			"type":"VEC3"
		},
		{
			"bufferView":5,
			"componentType":5126,
			"count":200,
			"type":"VEC3"
		},
		{
			"bufferView":6,
			"componentType":5126,
			"count":200,
			"type":"VEC2"
		},
		{
			"bufferView":7,
			"componentType":5123,
			"count":348,
			"type":"SCALAR"
		},
		{
			"bufferView":8,
			"componentType":5126,
			"count":40,
			"max":[
				2.1229605674743652,
				-2.7841670513153076,
				2.0770936012268066
			],
			"min":[
				-2.1229605674743652,
				-5.066150188446045,
				-2.0770936012268066
			],
			"type":"VEC3"
		},
		{
			"bufferView":9,
			"componentType":5126,
			"count":40,
			"type":"VEC3"
		},
		{
			"bufferView":10,
			"componentType":5126,
			"count":40,
			"type":"VEC2"
		},
		{
			"bufferView":11,
			"componentType":5123,
			"count":54,
			"type":"SCALAR"
		},
		{
			"bufferView":12,
			"componentType":5126,
			"count":40,
			"max":[
				1.9192969799041748,
				-1.9214999675750732,
				1.891935110092163
			],
			"min":[
				-1.9192970991134644,
				-3.989443778991699,
				-1.8919353485107422
			],
			"type":"VEC3"
		},
		{
			"bufferView":13,
			"componentType":5126,
			"count":40,
			"type":"VEC3"
		},
		{
			"bufferView":14,
			"componentType":5126,
			"count":40,
			"type":"VEC2"
		},
		{
			"bufferView":15,
			"componentType":5123,
			"count":54,
			"type":"SCALAR"
		},
		{
			"bufferView":16,
			"componentType":5126,
			"count":40,
			"max":[
				1.6507771015167236,
				-1.1375446319580078,
				1.7315385341644287
			],
			"min":[
				-1.6507772207260132,
				-2.991596221923828,
				-1.7315385341644287
			],
			"type":"VEC3"
		},
		{
			"bufferView":17,
			"componentType":5126,
			"count":40,
			"type":"VEC3"
		},
		{
			"bufferView":18,
			"componentType":5126,
			"count":40,
			"type":"VEC2"
		},
		{
			"bufferView":19,
			"componentType":5123,
			"count":54,
			"type":"SCALAR"
		},
		{
			"bufferView":20,
			"componentType":5126,
			"count":80,
			"max":[
				1.4505445957183838,
				0.9148566722869873,
				1.4656260013580322
			],
			"min":[
				-1.4505443572998047,
				-2.003246545791626,
				-1.4656261205673218
			],
			"type":"VEC3"
		},
		{
			"bufferView":21,
			"componentType":5126,
			"count":80,
			"type":"VEC3"
		},
		{
			"bufferView":22,
			"componentType":5126,
			"count":80,
			"type":"VEC2"
		},
		{
			"bufferView":23,
			"componentType":5123,
			"count":108,
			"type":"SCALAR"
		},
		{
			"bufferView":24,
			"componentType":5126,
			"count":40,
			"max":[
				1.223624587059021,
				0.16494762897491455,
				1.2865949869155884
			],
			"min":[
				-1.2236244678497314,
				-1.2126405239105225,
				-1.2865949869155884
			],
			"type":"VEC3"
		},
		{
			"bufferView":25,
			"componentType":5126,
			"count":40,
			"type":"VEC3"
		},
		{
			"bufferView":26,
			"componentType":5126,
			"count":40,
			"type":"VEC2"
		},
		{
			"bufferView":27,
			"componentType":5126,
			"count":200,
			"max":[
				1.0188822746276855,
				-4.319031715393066,
				1.04141366481781
			],
			"min":[
				-1.0188825130462646,
				-6.285055160522461,
				-1.0032172203063965
			],
			"type":"VEC3"
		},
		{
			"bufferView":28,
			"componentType":5126,
			"count":200,
			"type":"VEC3"
		},
		{
			"bufferView":29,
			"componentType":5126,
			"count":200,
			"type":"VEC2"
		},
		{
			"bufferView":30,
			"componentType":5126,
			"count":40,
			"max":[
				2.1229605674743652,
				-2.7841670513153076,
				2.0770936012268066
			],
			"min":[
				-2.1229605674743652,
				-5.066150188446045,
				-2.0770936012268066
			],
			"type":"VEC3"
		},
		{
			"bufferView":31,
			"componentType":5126,
			"count":40,
			"type":"VEC3"
		},
		{
			"bufferView":32,
			"componentType":5126,
			"count":40,
			"type":"VEC2"
		},
		{
			"bufferView":33,
			"componentType":5126,
			"count":40,
			"max":[
				1.9192969799041748,
				-1.9214999675750732,
				1.891935110092163
			],
			"min":[
				-1.9192970991134644,
				-3.989443778991699,
				-1.8919353485107422
			],
			"type":"VEC3"
		},
		{
			"bufferView":34,
			"componentType":5126,
			"count":40,
			"type":"VEC3"
		},
		{
			"bufferView":35,
			"componentType":5126,
			"count":40,
			"type":"VEC2"
		},
		{
			"bufferView":36,
			"componentType":5126,
			"count":40,
			"max":[
				1.6507771015167236,
				-1.1375446319580078,
				1.7315385341644287
			],
			"min":[
				-1.6507772207260132,
				-2.991596221923828,
				-1.7315385341644287
			],
			"type":"VEC3"
		},
		{
			"bufferView":37,
			"componentType":5126,
			"count":40,
			"type":"VEC3"
		},
		{
			"bufferView":38,
			"componentType":5126,
			"count":40,
			"type":"VEC2"
		},
		{
			"bufferView":39,
			"componentType":5126,
			"count":80,
			"max":[
				1.4505445957183838,
				0.9148566722869873,
				1.4656260013580322
			],
			"min":[
				-1.4505443572998047,
				-2.003246545791626,
				-1.4656261205673218
			],
			"type":"VEC3"
		},
		{
			"bufferView":40,
			"componentType":5126,
			"count":80,
			"type":"VEC3"
		},
		{
			"bufferView":41,
			"componentType":5126,
			"count":80,
			"type":"VEC2"
		},
		{
			"bufferView":42,
			"componentType":5126,
			"count":40,
			"max":[
				1.223624587059021,
				0.16494762897491455,
				1.2865949869155884
			],
			"min":[
				-1.2236244678497314,
				-1.2126405239105225,
				-1.2865949869155884
			],
			"type":"VEC3"
		},
		{
			"bufferView":43,
			"componentType":5126,
			"count":40,
			"type":"VEC3"
		},
		{
			"bufferView":44,
			"componentType":5126,
			"count":40,
			"type":"VEC2"
		},
		{
			"bufferView":45,
			"componentType":5126,
			"count":200,
			"max":[
				1.0188822746276855,
				-4.319031715393066,
				1.04141366481781
			],
			"min":[
				-1.0188825130462646,
				-6.285055160522461,
				-1.0032172203063965
			],
			"type":"VEC3"
		},
		{
			"bufferView":46,
			"componentType":5126,
			"count":200,
			"type":"VEC3"
		},
		{
			"bufferView":47,
			"componentType":5126,
			"count":200,
			"type":"VEC2"
		},
		{
			"bufferView":48,
			"componentType":5126,
			"count":40,
			"max":[
				2.1229605674743652,
				-2.7841670513153076,
				2.0770936012268066
			],
			"min":[
				-2.1229605674743652,
				-5.066150188446045,
				-2.0770936012268066
			],
			"type":"VEC3"
		},
		{
			"bufferView":49,
			"componentType":5126,
			"count":40,
			"type":"VEC3"
		},
		{
			"bufferView":50,
			"componentType":5126,
			"count":40,
			"type":"VEC2"
		},
		{
			"bufferView":51,
			"componentType":5126,
			"count":40,
			"max":[
				1.9192969799041748,
				-1.9214999675750732,
				1.891935110092163
			],
			"min":[
				-1.9192970991134644,
				-3.989443778991699,
				-1.8919353485107422
			],
			"type":"VEC3"
		},
		{
			"bufferView":52,
			"componentType":5126,
			"count":40,
			"type":"VEC3"
		},
		{
			"bufferView":53,
			"componentType":5126,
			"count":40,
			"type":"VEC2"
		},
		{
			"bufferView":54,
			"componentType":5126,
			"count":40,
			"max":[
				1.6507771015167236,
				-1.1375446319580078,
				1.7315385341644287
			],
			"min":[
				-1.6507772207260132,
				-2.991596221923828,
				-1.7315385341644287
			],
			"type":"VEC3"
		},
		{
			"bufferView":55,
			"componentType":5126,
			"count":40,
			"type":"VEC3"
		},
		{
			"bufferView":56,
			"componentType":5126,
			"count":40,
			"type":"VEC2"
		},
		{
			"bufferView":57,
			"componentType":5126,
			"count":80,
			"max":[
				1.4505445957183838,
				0.9148566722869873,
				1.4656260013580322
			],
			"min":[
				-1.4505443572998047,
				-2.003246545791626,
				-1.4656261205673218
			],
			"type":"VEC3"
		},
		{
			"bufferView":58,
			"componentType":5126,
			"count":80,
			"type":"VEC3"
		},
		{
			"bufferView":59,
			"componentType":5126,
			"count":80,
			"type":"VEC2"
		},
		{
			"bufferView":60,
			"componentType":5126,
			"count":24,
			"max":[
				1,
				1,
				1
			],
			"min":[
				-1,
				-1,
				-1
			],
			"type":"VEC3"
		},
		{
			"bufferView":61,
			"componentType":5126,
			"count":24,
			"type":"VEC3"
		},
		{
			"bufferView":62,
			"componentType":5126,
			"count":24,
			"type":"VEC2"
		},
		{
			"bufferView":63,
			"componentType":5123,
			"count":36,
			"type":"SCALAR"
		},
		{
			"bufferView":64,
			"componentType":5126,
			"count":24,
			"max":[
				1,
				1,
				1
			],
			"min":[
				-1,
				-1,
				-1
			],
			"type":"VEC3"
		},
		{
			"bufferView":65,
			"componentType":5126,
			"count":24,
			"type":"VEC3"
		},
		{
			"bufferView":66,
			"componentType":5126,
			"count":24,
			"type":"VEC2"
		},
		{
			"bufferView":67,
			"componentType":5126,
			"count":24,
			"max":[
				1,
				1,
				1
			],
			"min":[
				-1,
				-1,
				-1
			],
			"type":"VEC3"
		},
		{
			"bufferView":68,
			"componentType":5126,
			"count":24,
			"type":"VEC3"
		},
		{
			"bufferView":69,
			"componentType":5126,
			"count":24,
			"type":"VEC2"
		}
	],
	"bufferViews":[
		{
			"buffer":0,
			"byteLength":480,
			"byteOffset":0,
			"target":34962
		},
		{
			"buffer":0,
			"byteLength":480,
			"byteOffset":480,
			"target":34962
		},
		{
			"buffer":0,
			"byteLength":320,
			"byteOffset":960,
			"target":34962
		},
		{
			"buffer":0,
			"byteLength":108,
			"byteOffset":1280,
			"target":34963
		},
		{
			"buffer":0,
			"byteLength":2400,
			"byteOffset":1388,
			"target":34962
		},
		{
			"buffer":0,
			"byteLength":2400,
			"byteOffset":3788,
			"target":34962
		},
		{
			"buffer":0,
			"byteLength":1600,
			"byteOffset":6188,
			"target":34962
		},
		{
			"buffer":0,
			"byteLength":696,
			"byteOffset":7788,
			"target":34963
		},
		{
			"buffer":0,
			"byteLength":480,
			"byteOffset":8484,
			"target":34962
		},
		{
			"buffer":0,
			"byteLength":480,
			"byteOffset":8964,
			"target":34962
		},
		{
			"buffer":0,
			"byteLength":320,
			"byteOffset":9444,
			"target":34962
		},
		{
			"buffer":0,
			"byteLength":108,
			"byteOffset":9764,
			"target":34963
		},
		{
			"buffer":0,
			"byteLength":480,
			"byteOffset":9872,
			"target":34962
		},
		{
			"buffer":0,
			"byteLength":480,
			"byteOffset":10352,
			"target":34962
		},
		{
			"buffer":0,
			"byteLength":320,
			"byteOffset":10832,
			"target":34962
		},
		{
			"buffer":0,
			"byteLength":108,
			"byteOffset":11152,
			"target":34963
		},
		{
			"buffer":0,
			"byteLength":480,
			"byteOffset":11260,
			"target":34962
		},
		{
			"buffer":0,
			"byteLength":480,
			"byteOffset":11740,
			"target":34962
		},
		{
			"buffer":0,
			"byteLength":320,
			"byteOffset":12220,
			"target":34962
		},
		{
			"buffer":0,
			"byteLength":108,
			"byteOffset":12540,
			"target":34963
		},
		{
			"buffer":0,
			"byteLength":960,
			"byteOffset":12648,
			"target":34962
		},
		{
			"buffer":0,
			"byteLength":960,
			"byteOffset":13608,
			"target":34962
		},
		{
			"buffer":0,
			"byteLength":640,
			"byteOffset":14568,
			"target":34962
		},
		{
			"buffer":0,
			"byteLength":216,
			"byteOffset":15208,
			"target":34963
		},
		{
			"buffer":0,
			"byteLength":480,
			"byteOffset":15424,
			"target":34962
		},
		{
			"buffer":0,
			"byteLength":480,
			"byteOffset":15904,
			"target":34962
		},
		{
			"buffer":0,
			"byteLength":320,
			"byteOffset":16384,
			"target":34962
		},
		{
			"buffer":0,
			"byteLength":2400,
			"byteOffset":16704,
			"target":34962
		},
		{
			"buffer":0,
			"byteLength":2400,
			"byteOffset":19104,
			"target":34962
		},
		{
			"buffer":0,
			"byteLength":1600,
			"byteOffset":21504,
			"target":34962
		},
		{
			"buffer":0,
			"byteLength":480,
			"byteOffset":23104,
			"target":34962
		},
		{
			"buffer":0,
			"byteLength":480,
			"byteOffset":23584,
			"target":34962
		},
		{
			"buffer":0,
			"byteLength":320,
			"byteOffset":24064,
			"target":34962
		},
		{
			"buffer":0,
			"byteLength":480,
			"byteOffset":24384,
			"target":34962
		},
		{
			"buffer":0,
			"byteLength":480,
			"byteOffset":24864,
			"target":34962
		},
		{
			"buffer":0,
			"byteLength":320,
			"byteOffset":25344,
			"target":34962
		},
		{
			"buffer":0,
			"byteLength":480,
			"byteOffset":25664,
			"target":34962
		},
		{
			"buffer":0,
			"byteLength":480,
			"byteOffset":26144,
			"target":34962
		},
		{
			"buffer":0,
			"byteLength":320,
			"byteOffset":26624,
			"target":34962
		},
		{
			"buffer":0,
			"byteLength":960,
			"byteOffset":26944,
			"target":34962
		},
		{
			"buffer":0,
			"byteLength":960,
			"byteOffset":27904,
			"target":34962
		},
		{
			"buffer":0,
			"byteLength":640,
			"byteOffset":28864,
			"target":34962
		},
		{
			"buffer":0,
			"byteLength":480,
			"byteOffset":29504,
			"target":34962
		},
		{
			"buffer":0,
			"byteLength":480,
			"byteOffset":29984,
			"target":34962
		},
		{
			"buffer":0,
			"byteLength":320,
			"byteOffset":30464,
			"target":34962
		},
		{
			"buffer":0,
			"byteLength":2400,
			"byteOffset":30784,
			"target":34962
		},
		{
			"buffer":0,
			"byteLength":2400,
			"byteOffset":33184,
			"target":34962
		},
		{
			"buffer":0,
			"byteLength":1600,
			"byteOffset":35584,
			"target":34962
		},
		{
			"buffer":0,
			"byteLength":480,
			"byteOffset":37184,
			"target":34962
		},
		{
			"buffer":0,
			"byteLength":480,
			"byteOffset":37664,
			"target":34962
		},
		{
			"buffer":0,
			"byteLength":320,
			"byteOffset":38144,
			"target":34962
		},
		{
			"buffer":0,
			"byteLength":480,
			"byteOffset":38464,
			"target":34962
		},
		{
			"buffer":0,
			"byteLength":480,
			"byteOffset":38944,
			"target":34962
		},
		{
			"buffer":0,
			"byteLength":320,
			"byteOffset":39424,
			"target":34962
		},
		{
			"buffer":0,
			"byteLength":480,
			"byteOffset":39744,
			"target":34962
		},
		{
			"buffer":0,
			"byteLength":480,
			"byteOffset":40224,
			"target":34962
		},
		{
			"buffer":0,
			"byteLength":320,
			"byteOffset":40704,
			"target":34962
		},
		{
			"buffer":0,
			"byteLength":960,
			"byteOffset":41024,
			"target":34962
		},
		{
			"buffer":0,
			"byteLength":960,
			"byteOffset":41984,
			"target":34962
		},
		{
			"buffer":0,
			"byteLength":640,
			"byteOffset":42944,
			"target":34962
		},
		{
			"buffer":0,
			"byteLength":288,
			"byteOffset":43584,
			"target":34962
		},
		{
			"buffer":0,
			"byteLength":288,
			"byteOffset":43872,
			"target":34962
		},
		{
			"buffer":0,
			"byteLength":192,
			"byteOffset":44160,
			"target":34962
		},
		{
			"buffer":0,
			"byteLength":72,
			"byteOffset":44352,
			"target":34963
		},
		{
			"buffer":0,
			"byteLength":288,
			"byteOffset":44424,
			"target":34962
		},
		{
			"buffer":0,
			"byteLength":288,
			"byteOffset":44712,
			"target":34962
		},
		{
			"buffer":0,
			"byteLength":192,
			"byteOffset":45000,
			"target":34962
		},
		{
			"buffer":0,
			"byteLength":288,
			"byteOffset":45192,
			"target":34962
		},
		{
			"buffer":0,
			"byteLength":288,
			"byteOffset":45480,
			"target":34962
		},
		{
			"buffer":0,
			"byteLength":192,
			"byteOffset":45768,
			"target":34962
		}
	],
	"buffers":[
		{
			"byteLength":45960,
			"uri":"tree1.bin"
		}
	]
}
